<svg xmlns="http://www.w3.org/2000/svg" width="579.89" height="458.868" viewBox="0 0 579.89 458.868">
  <g id="Group_117" data-name="Group 117" transform="translate(-0.004 -11.753)">
    <ellipse id="Ellipse_52" data-name="Ellipse 52" cx="59.243" cy="5.686" rx="59.243" ry="5.686" transform="translate(352.91 459.249)" fill="#6c63ff" opacity="0.1"/>
    <path id="Path_327" data-name="Path 327" d="M351.935,40.636c26.092-9.443,57.857-1.322,84.983,10.523C522.116,88.369,584.184,159,633.5,230.966c17.855,26.057,34.815,53.262,41.527,82.35,13.667,59.207-21.979,120.5-82.6,141.979-20.616,7.312-43.266,10.309-65.95,11.98-40.337,2.975-82.1,1.794-122.115-9.224-28.536-7.874-55.529-20.54-81.419-34.533-72.3-39.1-138.335-89.876-185.881-151.9-20.853-27.2-38.494-57.874-39-89.263s20.5-62.93,55.067-68.267c14.291-2.2,29.408.09,44.155,2.452,21.714,3.481,43.722,7.143,65.187,5.624,22.176-1.58,51.018-10.017,55.061-30.63C321.805,69.4,325.877,50.068,351.935,40.636Z" transform="translate(-98.04 -24.752)" fill="#6c63ff" opacity="0.1"/>
    <path id="Path_328" data-name="Path 328" d="M341.674,800.393s27.877-1.637,24.59,17.385a4.582,4.582,0,0,1-2.478,4.888s-.046-1.412-2.859-.934a12.927,12.927,0,0,1-3.027.146,6.4,6.4,0,0,1-3.7-1.49h0s-7.839-3.15-10.883-15.624c0,0-2.259-2.717-2.166-3.42l4.7,1.957s-1.606,3.307-.341,6.052c0,0,.15-5.928,1.057-5.793.179.028,2.443,1.125,2.443,1.125s-2.767,5.754-.682,9.938c0,0-.791-7.092,1.542-9.522l3.316,1.884s-3.235,5.945-1.04,10.793c0,0-.578-7.441,1.733-10.337l3,2.25s-3.038,5.86-1.184,9.887c0,0,.237-8.667,1.831-9.319,0,0,2.628,2.25,3.027,3.183,0,0-2.079,4.252-.791,6.5,0,0,.791-5.771,1.444-5.8,0,0,2.611,3.824,2.888,6.445a13.649,13.649,0,0,0-2.259-6.811,7.976,7.976,0,0,1,4.009,2.019s-.41-2.705-4.65-2.942c0,0-2.16-2.9-2.744-3.076,0,0,4.223-.343,6.782.765,0,0-2.253-2.553-7.556-1.395l-2.963-2.351s5.563-.742,7.914.079c0,0-2.709-2.25-8.711-.613L350.7,804.38a29.928,29.928,0,0,1,7.561-.636s-2.981-1.564-8.509.129l-2.311-1.007s3.466-.664,4.488-.771S353,801.72,353,801.72a12.328,12.328,0,0,0-6.522.7S341.587,800.719,341.674,800.393Z" transform="translate(-200.714 -367.994)" fill="#6c63ff"/>
    <ellipse id="Ellipse_53" data-name="Ellipse 53" cx="19.732" cy="3.245" rx="19.732" ry="3.245" transform="translate(140.428 453.085)" fill="#6c63ff" opacity="0.1"/>
    <path id="Path_329" data-name="Path 329" d="M277.185,777.655s15.718-.922,13.864,9.8a2.584,2.584,0,0,1-1.392,2.756s-.029-.793-1.612-.523a7.2,7.2,0,0,1-1.7.079,3.552,3.552,0,0,1-2.091-.838h0s-4.413-1.783-6.146-8.813c0,0-1.271-1.535-1.225-1.929l2.657,1.125a4.537,4.537,0,0,0-.2,3.414s.087-3.346.578-3.268c.1,0,1.381.647,1.381.647s-1.56,3.245-.381,5.624c0,0-.451-4,.866-5.371l1.866,1.063s-1.82,3.375-.578,6.085c0,0-.318-4.2.976-5.827l1.693,1.282s-1.733,3.3-.664,5.574c0,0,.133-4.888,1.034-5.253a10.133,10.133,0,0,1,1.7,1.794s-1.155,2.4-.445,3.661c0,0,.445-3.251.815-3.268a10.62,10.62,0,0,1,1.623,3.633,7.731,7.731,0,0,0-1.271-3.841,4.452,4.452,0,0,1,2.259,1.125s-.225-1.524-2.623-1.659A10.024,10.024,0,0,0,286.63,783a9.909,9.909,0,0,1,3.824.427s-1.271-1.44-4.263-.787l-1.669-1.327s3.137-.416,4.465.045c0,0-1.531-1.271-4.916-.343l-1.814-1.063a16.945,16.945,0,0,1,4.257-.354s-1.675-.883-4.794.073l-1.3-.562s1.958-.377,2.53-.433.607-.214.607-.214a6.982,6.982,0,0,0-3.68.4A15.425,15.425,0,0,1,277.185,777.655Z" transform="translate(-173.571 -358.051)" fill="#6c63ff"/>
    <ellipse id="Ellipse_54" data-name="Ellipse 54" cx="11.125" cy="1.834" rx="11.125" ry="1.834" transform="translate(103.314 431.257)" fill="#6c63ff" opacity="0.1"/>
    <path id="Path_330" data-name="Path 330" d="M946.565,795.981s18.976-1.125,16.752,11.811a3.148,3.148,0,0,1-1.687,3.33s-.035-.962-1.947-.636a8.781,8.781,0,0,1-2.062.1,4.308,4.308,0,0,1-2.519-1.012h0s-5.337-2.143-7.411-10.635c0,0-1.536-1.85-1.473-2.323l3.2,1.327a5.472,5.472,0,0,0-.231,4.123s.1-4.038.716-3.937c.127,0,1.664.776,1.664.776s-1.883,3.937-.462,6.749c0,0-.537-4.826,1.051-6.479l2.253,1.277s-2.2,4.049-.7,7.351c0,0-.387-5.062,1.155-7.036l2.045,1.552s-2.068,3.988-.809,6.749c0,0,.167-5.894,1.253-6.344a12.267,12.267,0,0,1,2.057,2.165s-1.415,2.9-.537,4.426c0,0,.537-3.937.982-3.937a12.9,12.9,0,0,1,1.964,4.387,9.282,9.282,0,0,0-1.531-4.634,5.417,5.417,0,0,1,2.727,1.372s-.277-1.839-3.171-2a12.079,12.079,0,0,0-1.86-2.092,11.985,11.985,0,0,1,4.621.517s-1.537-1.732-5.147-.945l-2.016-1.6s3.784-.506,5.389.051c0,0-1.848-1.535-5.932-.416l-2.2-1.277a20.517,20.517,0,0,1,5.147-.433s-2.028-1.063-5.776.09L950.5,797.7s2.363-.456,3.056-.523.728-.259.728-.259a8.408,8.408,0,0,0-4.436.478S946.508,796.195,946.565,795.981Z" transform="translate(-456.268 -366.068)" fill="#6c63ff"/>
    <ellipse id="Ellipse_55" data-name="Ellipse 55" cx="13.43" cy="2.21" rx="13.43" ry="2.21" transform="translate(489.933 443.996)" fill="#6c63ff" opacity="0.1"/>
    <path id="Path_348" data-name="Path 348" d="M743.3,491.33s1.768,6.4.635,7.087Z" transform="translate(-370.565 -232.772)" opacity="0.1"/>
    <path id="Path_376" data-name="Path 376" d="M652.86,258.093H612.9V219.758h39.985Zm-.578-57.8h-38.8c0-59.572,58.158-56.091,58.158-93.779,0-20.759-17.451-37.39-38.772-37.39S594.1,87.054,594.1,107.1H555.33A74.369,74.369,0,0,1,578,53.684,78.483,78.483,0,0,1,632.868,31.61c42.827,0,77.538,33.268,77.538,74.9,0,47.126-58.152,52.491-58.152,93.779Z" transform="translate(-289.176 57.39)" fill="#6c63ff"/>
    <path id="Path_377" data-name="Path 377" d="M360.816,368.494H350.511v-9.91h10.305Zm-.156-14.9h-9.993c0-15.354,14.99-14.46,14.99-24.184a9.821,9.821,0,0,0-9.993-9.646,10.073,10.073,0,0,0-9.97,9.786H335.7a20,20,0,0,1,39.982-.152c-.032,12.148-15.022,13.532-15.022,24.173Z" transform="translate(-198.414 -153.428)" fill="#6c63ff" opacity="0.1"/>
    <path id="Path_378" data-name="Path 378" d="M495.862,490.922H485.557V481.04h10.305Zm-.15-14.9h-9.993c0-15.36,14.99-14.46,14.99-24.184A9.554,9.554,0,0,0,497.764,445,10.094,10.094,0,0,0,480.693,452H470.7a20,20,0,0,1,39.982-.152C510.7,463.993,495.712,465.382,495.712,476.023Z" transform="translate(-255.432 -207.009)" fill="#6c63ff" opacity="0.1"/>
    <path id="Path_379" data-name="Path 379" d="M583.079,286.743H575.61v-7.148h7.469Zm-.11-10.8h-7.244c0-11.125,10.866-10.478,10.866-17.52a7.118,7.118,0,0,0-7.244-6.985,7.3,7.3,0,0,0-7.244,7.1H564.86a14.493,14.493,0,0,1,28.975-.113C593.823,267.221,582.969,268.228,582.969,275.939Z" transform="translate(-295.201 -124.708)" fill="#6c63ff" opacity="0.1"/>
    <path id="Path_380" data-name="Path 380" d="M809.693,319.188H805.47v-4.049h4.223Zm-.064-6.1H805.51c0-6.288,6.14-5.922,6.14-9.9a3.886,3.886,0,0,0-1.2-2.8,4.138,4.138,0,0,0-6.985,2.873h-4.1a8.2,8.2,0,0,1,16.376-.062C815.769,308.136,809.629,308.727,809.629,313.085Z" transform="translate(-394.247 -147.063)" fill="#6c63ff" opacity="0.1"/>
    <path id="Path_381" data-name="Path 381" d="M921.469,646.658h-4.223v-4.049h4.223Zm-.064-6.1h-4.1c0-6.294,6.146-5.922,6.146-9.9a4.021,4.021,0,0,0-4.1-3.937,4.122,4.122,0,0,0-4.1,4.01h-4.1a8.2,8.2,0,0,1,16.376-.062c.023,4.966-6.117,5.534-6.117,9.893Z" transform="translate(-441.466 -290.356)" fill="#6c63ff" opacity="0.1"/>
  </g>
</svg>
