<svg xmlns="http://www.w3.org/2000/svg" xmlns:xlink="http://www.w3.org/1999/xlink" width="166.82" height="160.874" viewBox="0 0 166.82 160.874">
  <defs>
    <linearGradient id="linear-gradient" x1="0.5" y1="1" x2="0.5" gradientUnits="objectBoundingBox">
      <stop offset="0" stop-color="gray" stop-opacity="0.251"/>
      <stop offset="0.54" stop-color="gray" stop-opacity="0.122"/>
      <stop offset="1" stop-color="gray" stop-opacity="0.102"/>
    </linearGradient>
    <linearGradient id="linear-gradient-2" x1="0.5" y1="1" x2="0.5" y2="0" xlink:href="#linear-gradient"/>
  </defs>
  <g id="give_feedback" data-name="give feedback" transform="translate(-551.887 -3142.141)">
    <g id="Group_21" data-name="Group 21" transform="translate(552.477 3142.141)">
      <ellipse id="Ellipse_25" data-name="Ellipse 25" cx="14.664" cy="3.1" rx="14.664" ry="3.1" transform="translate(40.553 154.586)" fill="#6c63ff" opacity="0.1"/>
      <ellipse id="Ellipse_26" data-name="Ellipse 26" cx="18.299" cy="3.1" rx="18.299" ry="3.1" transform="translate(116.631 154.673)" fill="#6c63ff" opacity="0.1"/>
      <path id="Path_182" data-name="Path 182" d="M59.313,396.83H74.587v27.4H60.431c-.038.281-.074.565-.113.848H74.587v22.1c-.026-.01-.048-.022-.072-.034-.4-.21-.8-.432-1.2-.67l-.256-.153q-.6-.374-1.2-.792c-.14-.1-.28-.2-.418-.3a27.479,27.479,0,0,1-6-6.173c-.051-.065-.1-.135-.151-.2-.244-.349-.483-.7-.715-1.062l-.256-.4c-.274-.442-.539-.9-.8-1.355-.038-.067-.074-.135-.113-.2a33.16,33.16,0,0,1-2.589-6.161c-.021-.065-.039-.137-.059-.2q-.31-1.05-.549-2.12c-.069-.3-.135-.594-.193-.905-.021-.091-.039-.18-.056-.269A70.785,70.785,0,0,1,59,412.711v-1.585c0-1.832.017-3.677.041-5.519,0-.477.015-.953.023-1.432q.032-1.824.09-3.649c.009-.339.021-.676.035-1.012q0-.291.023-.582C59.247,398.227,59.277,397.527,59.313,396.83Z" transform="translate(-57.302 -324.016)" fill="#6c63ff" opacity="0.1"/>
      <path id="Path_183" data-name="Path 183" d="M115.278,186.388H106.9a86.813,86.813,0,0,1,4.456-8.074c1.245-2.013,2.558-3.974,3.922-5.864Z" transform="translate(-97.994 -144.084)" fill="#6c63ff" opacity="0.1"/>
      <path id="Path_184" data-name="Path 184" d="M76.626,247.09V275.9H61.4c0-.083.011-.168.015-.252.014-.228.027-.456.042-.681.017-.265.035-.533.054-.792s.041-.576.063-.864.044-.578.069-.866.048-.575.075-.86.051-.574.08-.86c.023-.238.047-.473.071-.711.035-.335.071-.672.11-1a1.2,1.2,0,0,1,.017-.149q.412-3.654,1.121-7.234a65.831,65.831,0,0,1,1.889-7.329,62.86,62.86,0,0,1,2.841-7.2Z" transform="translate(-59.341 -203.939)" fill="#6c63ff" opacity="0.1"/>
      <path id="Path_185" data-name="Path 185" d="M186.8,125.618v27.4h32.623v-27.4Zm0,28.25V177.4c.187.052.372.1.555.143.25.063.5.121.752.17.048.01.1.02.151.026.1.022.2.04.3.057.251.046.5.083.752.113.119.016.239.03.36.042l.29.03h0c.158.016.315.028.47.034.1,0,.193.012.292.016H191.8a3.147,3.147,0,0,0,.387-.016h.009a1.544,1.544,0,0,0,.269-.016.473.473,0,0,0,.075,0,1.188,1.188,0,0,0,.223-.014h.053l.5-.052c.166-.02.333-.046.5-.069l.343-.053a23.916,23.916,0,0,0,4.131-1.157c3.043-1.117,6.02-2.68,9.061-3.825,3.932-1.476,8.277-2.2,12.077-.4V153.868ZM219.423,95.11V58.627a32.429,32.429,0,0,0-10.6,1.636c-8.261,2.732-15.673,8.657-22.024,16.224V95.108h1.637v.846H186.8v28.818h32.623V95.955H195.16V95.11Zm41.9-12.323a11.23,11.23,0,0,1-5.913-2.262c-3.514-2.516-6.321-6.4-9.457-9.679a38.352,38.352,0,0,0-22.889-11.971V95.11h46.571l.116-.16Zm4.242-.99,4.5,6.5v-8.2a14.724,14.724,0,0,0-4.492,1.7Zm4.5,101.449V153.868h-9.585c-.026-.125-.051-.252-.081-.378.029.127.053.254.08.378H223.072v21.245c.355.347.706.711,1.053,1.082h0c.375.4.745.814,1.117,1.224l.375.408c.179.2.36.4.542.582q.542.578,1.094,1.141c.182.2.369.376.554.563a77.183,77.183,0,0,0,9.275,7.985q1.088.792,2.2,1.547c.492.331.987.66,1.484.979q1.12.719,2.257,1.387h0a68.64,68.64,0,0,0,21.972,8.425q2.527.491,5.073.773V183.243h.151ZM223.072,95.955v28.817h47V95.955Zm0,29.662v27.4h47v-27.4ZM273.72,80.057V89.2l5.741-8.292a48.492,48.492,0,0,0-5.741-.866Zm0,45.571v27.394h45.713v-27.4Zm45.546,59.792.161-31.552H273.72v47.655a62.322,62.322,0,0,0,8.834-.139h.051q2.107-.174,4.194-.507h.032a63.2,63.2,0,0,0,21.551-7.569m19.865-63.178c-.172-.533-.351-1.062-.533-1.585-.34-.99-.7-1.953-1.07-2.916h-3.567v27.392H332.1a75.354,75.354,0,0,0-3.844-22.9Zm-5.169,23.747v27.139a40.02,40.02,0,0,0,6.232-11.063,48.274,48.274,0,0,0,2.778-16.079Zm0-36.235v7.131h3.233q-1.467-3.682-3.228-7.141Zm-31-32.21c-.238-.119-.476-.24-.715-.357a54.185,54.185,0,0,0-7.722-3.055l-8.786,12.692h0l-.169.236.113.162h31.27a63.439,63.439,0,0,0-13.987-9.689Zm14.908,10.533H274.361l-.641.773v28.034h45.719V111.193a76.692,76.692,0,0,0-12.451-15.237Z" transform="translate(-165.869 -52.806)" fill="#6c63ff" opacity="0.1"/>
      <path id="Path_186" data-name="Path 186" d="M76.626,320.46v14.28H61.4c0-.083.011-.168.015-.252.014-.228.027-.456.042-.681.017-.265.035-.533.054-.792s.041-.576.063-.864.044-.578.069-.866.048-.574.075-.86.051-.574.08-.86c.023-.238.047-.473.071-.711.035-.335.071-.672.11-1A1.2,1.2,0,0,1,62,327.7q.412-3.654,1.121-7.234Z" transform="translate(-59.341 -262.775)" fill="#6c63ff" opacity="0.1"/>
      <path id="Path_187" data-name="Path 187" d="M59.313,396.83H74.587v27.4H60.431c-.038.281-.074.565-.113.848H74.587v22.1c-.026-.01-.048-.022-.072-.034-.4-.21-.8-.432-1.2-.67l-.256-.153q-.6-.374-1.2-.792c-.14-.1-.28-.2-.418-.3a27.479,27.479,0,0,1-6-6.173c-.051-.065-.1-.135-.151-.2-.244-.349-.483-.7-.715-1.062l-.256-.4c-.274-.442-.539-.9-.8-1.355-.038-.067-.074-.135-.113-.2a33.16,33.16,0,0,1-2.589-6.161c-.021-.065-.039-.137-.059-.2q-.31-1.05-.549-2.12c-.069-.3-.135-.594-.193-.905-.021-.091-.039-.18-.056-.269A70.785,70.785,0,0,1,59,412.711v-1.585c0-1.832.017-3.677.041-5.519,0-.477.015-.953.023-1.432q.032-1.824.09-3.649c.009-.339.021-.676.035-1.012q0-.291.023-.582C59.247,398.227,59.277,397.527,59.313,396.83Z" transform="translate(-57.302 -324.016)" fill="#6c63ff" opacity="0.1"/>
      <path id="Path_188" data-name="Path 188" d="M151.044,175.439v24.69H139.56v-24.69H141.2v-8.36h6.721v8.36Z" transform="translate(-118.629 -128.164)" fill="#6c63ff" opacity="0.1"/>
      <rect id="Rectangle_75" data-name="Rectangle 75" width="11.483" height="27.402" transform="translate(20.932 72.812)" fill="#6c63ff" opacity="0.1"/>
      <path id="Path_189" data-name="Path 189" d="M186.8,539.44h11.484v22.781a23.879,23.879,0,0,1-4.131,1.155l-.343.055c-.169.026-.336.048-.5.069s-.337.038-.5.052h-.053c-.072,0-.15.012-.221.014h-.077c-.09,0-.181.012-.271.016h0c-.128.01-.256.012-.387.014h-1.066l-.29-.014c-.151,0-.313-.022-.47-.036h0l-.289-.028-.36-.044c-.253-.03-.5-.067-.752-.113l-.3-.056-.15-.028c-.251-.052-.5-.107-.752-.17-.185-.042-.369-.093-.555-.143Z" transform="translate(-165.869 -438.376)" fill="#6c63ff" opacity="0.1"/>
      <path id="Path_190" data-name="Path 190" d="M427.581,338.19v27.4h-47v-11.82h25.035v6.973h12.5V338.19Z" transform="translate(-323.377 -265.378)" fill="#6c63ff" opacity="0.1"/>
      <path id="Path_191" data-name="Path 191" d="M474.97,567.289h-.151v17.977q-2.543-.283-5.072-.771a68.659,68.659,0,0,1-21.981-8.443q-3.029-1.795-5.936-3.918a77.491,77.491,0,0,1-9.277-7.985q-1.108-1.117-2.187-2.286c-.5-.541-.993-1.1-1.494-1.634-.348-.37-.7-.735-1.053-1.084V537.908h37.406c-.026-.127-.051-.253-.078-.378.029.125.056.252.081.378h9.591v29.369C474.871,567.28,474.921,567.286,474.97,567.289Z" transform="translate(-370.617 -436.845)" fill="#6c63ff" opacity="0.1"/>
      <path id="Path_192" data-name="Path 192" d="M869.39,202.161h-6.17v-2.524h2.766V192.12q.36.172.716.355v7.163h2.688Z" transform="translate(-740.491 -159.858)" fill="#6c63ff" opacity="0.1"/>
      <path id="Path_193" data-name="Path 193" d="M800.274,275.9H769.983l.01.01-.014-.01h-5.62V248.3h1.592v20.4h7.276V256.62h6.011v-9.53h6.17v9.538h6.011v12.084h8.854Z" transform="translate(-656.509 -203.939)" fill="#6c63ff" opacity="0.1"/>
      <path id="Path_194" data-name="Path 194" d="M764.36,396.82v27.4h35.914v-27.4Zm45.663,59.661.05-21.691h-9.8v-9.707H764.36v47.641a62.313,62.313,0,0,0,8.834-.139h.051q2.107-.174,4.194-.507h.032a63.2,63.2,0,0,0,21.551-7.569" transform="translate(-656.509 -324.008)" fill="#6c63ff" opacity="0.1"/>
      <path id="Path_195" data-name="Path 195" d="M1093,539.44h8.378a48.428,48.428,0,0,1-2.78,16.077,40.039,40.039,0,0,1-6.231,11.063V549.148H1093Z" transform="translate(-935.155 -438.376)" fill="#6c63ff" opacity="0.1"/>
      <path id="Path_196" data-name="Path 196" d="M1104.953,442.451h-8.383v-22.9h4.536A75.443,75.443,0,0,1,1104.953,442.451Z" transform="translate(-938.723 -342.236)" fill="#6c63ff" opacity="0.1"/>
      <rect id="Rectangle_77" data-name="Rectangle 77" width="5.073" height="8.655" transform="translate(99.131 52.034)" fill="#6c63ff" opacity="0.1"/>
      <rect id="Rectangle_78" data-name="Rectangle 78" width="5.073" height="1.993" transform="translate(99.131 69.973)" fill="#6c63ff" opacity="0.1"/>
      <rect id="Rectangle_79" data-name="Rectangle 79" width="5.073" height="5.814" transform="translate(99.131 72.812)" fill="#6c63ff" opacity="0.1"/>
      <rect id="Rectangle_80" data-name="Rectangle 80" width="5.073" height="8.655" transform="translate(99.131 87.912)" fill="#6c63ff" opacity="0.1"/>
      <rect id="Rectangle_81" data-name="Rectangle 81" width="5.073" height="8.655" transform="translate(99.131 105.852)" fill="#6c63ff" opacity="0.1"/>
      <path id="Path_197" data-name="Path 197" d="M711.492,660.812a.638.638,0,0,1,.15.012h-.15v2.011H706.42V654.17h5.072Z" transform="translate(-607.289 -530.379)" fill="#6c63ff" opacity="0.1"/>
      <path id="Path_198" data-name="Path 198" d="M711.492,744.71V751.4q-2.543-.283-5.072-.771V744.71Z" transform="translate(-607.289 -602.984)" fill="#6c63ff" opacity="0.1"/>
      <rect id="Rectangle_82" data-name="Rectangle 82" width="21.742" height="0.636" transform="translate(57.203 99.58)" fill="#6c63ff" opacity="0.1"/>
      <rect id="Rectangle_83" data-name="Rectangle 83" width="21.742" height="2.437" transform="translate(57.203 101.062)" fill="#6c63ff" opacity="0.1"/>
      <rect id="Rectangle_84" data-name="Rectangle 84" width="21.742" height="3.918" transform="translate(57.203 111.485)" fill="#6c63ff" opacity="0.1"/>
      <path id="Path_199" data-name="Path 199" d="M455.5,652.15v3.918H438.493q-1.108-1.113-2.188-2.286c-.5-.541-.992-1.1-1.494-1.632Z" transform="translate(-376.555 -528.759)" fill="#6c63ff" opacity="0.1"/>
      <path id="Path_200" data-name="Path 200" d="M528.65,712.216v3.914h-1.8q-3.027-1.8-5.934-3.92Z" transform="translate(-449.706 -576.922)" fill="#6c63ff" opacity="0.1"/>
      <rect id="Rectangle_85" data-name="Rectangle 85" width="4.28" height="5.634" transform="translate(116.687 75.468)" fill="#6c63ff" opacity="0.1"/>
      <rect id="Rectangle_86" data-name="Rectangle 86" width="4.28" height="5.634" transform="translate(24.015 49.219)" fill="#6c63ff" opacity="0.1"/>
      <rect id="Rectangle_87" data-name="Rectangle 87" width="4.28" height="5.634" transform="translate(24.015 62.305)" fill="#6c63ff" opacity="0.1"/>
      <rect id="Rectangle_88" data-name="Rectangle 88" width="4.28" height="5.634" transform="translate(24.015 75.391)" fill="#6c63ff" opacity="0.1"/>
      <rect id="Rectangle_89" data-name="Rectangle 89" width="4.28" height="5.634" transform="translate(24.015 88.475)" fill="#6c63ff" opacity="0.1"/>
      <rect id="Rectangle_90" data-name="Rectangle 90" width="4.28" height="5.634" transform="translate(24.015 101.561)" fill="#6c63ff" opacity="0.1"/>
      <rect id="Rectangle_91" data-name="Rectangle 91" width="4.28" height="5.634" transform="translate(24.015 114.647)" fill="#6c63ff" opacity="0.1"/>
      <rect id="Rectangle_92" data-name="Rectangle 92" width="4.28" height="5.634" transform="translate(133.026 75.468)" fill="#6c63ff" opacity="0.1"/>
      <rect id="Rectangle_93" data-name="Rectangle 93" width="4.28" height="5.634" transform="translate(116.687 89.364)" fill="#6c63ff" opacity="0.1"/>
      <rect id="Rectangle_94" data-name="Rectangle 94" width="4.28" height="5.634" transform="translate(133.026 89.364)" fill="#6c63ff" opacity="0.1"/>
      <rect id="Rectangle_95" data-name="Rectangle 95" width="4.28" height="5.634" transform="translate(116.687 103.259)" fill="#6c63ff" opacity="0.1"/>
      <rect id="Rectangle_96" data-name="Rectangle 96" width="4.28" height="5.634" transform="translate(133.026 103.259)" fill="#6c63ff" opacity="0.1"/>
      <rect id="Rectangle_97" data-name="Rectangle 97" width="4.28" height="5.634" transform="translate(116.687 117.155)" fill="#6c63ff" opacity="0.1"/>
      <rect id="Rectangle_98" data-name="Rectangle 98" width="4.28" height="5.634" transform="translate(133.026 117.155)" fill="#6c63ff" opacity="0.1"/>
      <rect id="Rectangle_99" data-name="Rectangle 99" width="4.28" height="5.634" transform="translate(116.687 131.051)" fill="#6c63ff" opacity="0.1"/>
      <rect id="Rectangle_100" data-name="Rectangle 100" width="4.28" height="5.634" transform="translate(133.026 131.051)" fill="#6c63ff" opacity="0.1"/>
      <path id="Path_201" data-name="Path 201" d="M775.83,705.963V702.33h4.279v3.116Z" transform="translate(-659.143 -557.385)" fill="#6c63ff" opacity="0.1"/>
      <path id="Path_202" data-name="Path 202" d="M65.24,357v3.223H79.888V357Zm1.46,3.021H65.5V357.2h1.2Zm1.458,0h-1.2V357.2h1.2Zm1.455,0h-1.2V357.2h1.2Zm1.458,0h-1.2V357.2h1.2Zm1.457,0h-1.2V357.2h1.2Zm1.458,0h-1.2V357.2h1.2Zm1.458,0h-1.2V357.2h1.2Zm1.457,0H75.7V357.2h1.2Zm1.457,0h-1.2V357.2h1.2Zm1.457,0h-1.2V357.2h1.2Z" transform="translate(-62.603 -292.076)" fill="#6c63ff" opacity="0.1"/>
      <path id="Path_203" data-name="Path 203" d="M65.24,404.34v3.223H79.888V404.34Zm1.46,3.019H65.5v-2.815h1.2Zm1.458,0h-1.2v-2.815h1.2Zm1.455,0h-1.2v-2.815h1.2Zm1.458,0h-1.2v-2.815h1.2Zm1.457,0h-1.2v-2.815h1.2Zm1.458,0h-1.2v-2.815h1.2Zm1.458,0h-1.2v-2.815h1.2Zm1.457,0H75.7v-2.815h1.2Zm1.457,0h-1.2v-2.815h1.2Zm1.457,0h-1.2v-2.815h1.2Z" transform="translate(-62.603 -330.039)" fill="#6c63ff" opacity="0.1"/>
      <path id="Path_204" data-name="Path 204" d="M65.24,451.7v3.229H79.888V451.7Zm1.46,3.019H65.5V451.9h1.2Zm1.458,0h-1.2V451.9h1.2Zm1.455,0h-1.2V451.9h1.2Zm1.458,0h-1.2V451.9h1.2Zm1.457,0h-1.2V451.9h1.2Zm1.458,0h-1.2V451.9h1.2Zm1.458,0h-1.2V451.9h1.2Zm1.457,0H75.7V451.9h1.2Zm1.457,0h-1.2V451.9h1.2Zm1.457,0h-1.2V451.9h1.2Z" transform="translate(-62.603 -368.017)" fill="#6c63ff" opacity="0.1"/>
      <path id="Path_205" data-name="Path 205" d="M65.24,499.06v3.219H79.888V499.06Zm1.46,3.019H65.5V499.26h1.2Zm1.458,0h-1.2V499.26h1.2Zm1.455,0h-1.2V499.26h1.2Zm1.458,0h-1.2V499.26h1.2Zm1.457,0h-1.2V499.26h1.2Zm1.458,0h-1.2V499.26h1.2Zm1.458,0h-1.2V499.26h1.2Zm1.457,0H75.7V499.26h1.2Zm1.457,0h-1.2V499.26h1.2Zm1.457,0h-1.2V499.26h1.2Z" transform="translate(-62.603 -405.995)" fill="#6c63ff" opacity="0.1"/>
      <path id="Path_206" data-name="Path 206" d="M65.66,546.41c.059.3.125.606.194.905v-.7h1.2v2.817h-.644c.02.065.039.137.059.2H80.245V546.41Zm2.859,3.019h-1.2v-2.817h1.2Zm1.455,0h-1.2v-2.817h1.2Zm1.458,0H70.226v-2.817h1.2Zm1.457,0h-1.2v-2.817h1.2Zm1.458,0h-1.2v-2.817h1.2Zm1.458,0H74.6v-2.817h1.2Zm1.457,0h-1.2v-2.817h1.2Zm1.457,0h-1.2v-2.817h1.2Zm1.457,0h-1.2v-2.817h1.2Z" transform="translate(-62.96 -443.966)" fill="#6c63ff" opacity="0.1"/>
      <path id="Path_207" data-name="Path 207" d="M88.26,593.77c.038.063.074.135.113.2h.8v1.353c.086.135.17.269.257.4V593.96h1.2v2.827h-.488c.048.065.095.135.15.2h9.155V593.77Zm3.824,3.017h-1.2v-2.815h1.2Zm1.458,0h-1.2v-2.815h1.2Zm1.458,0H93.8v-2.815H95Zm1.457,0h-1.2v-2.815h1.2Zm1.457,0h-1.2v-2.815h1.2Zm1.457,0h-1.2v-2.815h1.2Z" transform="translate(-82.159 -481.944)" fill="#6c63ff" opacity="0.1"/>
      <path id="Path_208" data-name="Path 208" d="M141.65,641.12c.137.1.277.2.418.3v-.1h1.2v.891l.256.156v-1.048h1.2v1.714a.326.326,0,0,0,.072.036V641.12Z" transform="translate(-127.514 -519.914)" fill="#6c63ff" opacity="0.1"/>
      <path id="Path_209" data-name="Path 209" d="M288.619,272.448Zm-9.271,58.465Zm-9.672-29.748c.029.127.053.254.08.378h0C269.732,301.419,269.707,301.293,269.676,301.166Zm18.943-28.723Zm-90.9-29.662v.846h6.723v-.846Zm81.629,88.133Zm-9.672-29.748c.029.127.053.254.08.378h0C269.732,301.419,269.707,301.293,269.676,301.166Zm18.943-28.723Zm-9.271,58.465Zm-9.672-29.742c.029.127.053.254.08.378h0C269.732,301.419,269.707,301.293,269.676,301.166Z" transform="translate(-175.146 -200.482)" fill="#6c63ff" opacity="0.1"/>
      <path id="Path_210" data-name="Path 210" d="M327.709,261.767s-.593-.109-.593-1.246a22.963,22.963,0,0,0-.424-3.261h0c0-.01-.367-3.7-.874-4.285s-1.159-4.029-1.159-4.029a10.435,10.435,0,0,0-.339-2.27,22.476,22.476,0,0,1-.987-2.791,5.254,5.254,0,0,0-2.342-2.377s-3.415-2.607-4.382-3.457h0a1.609,1.609,0,0,1-.245-.244c-.169-.291-.9-.3-.9-.3-.077-.638-.151-1.371-.175-2.034a2.037,2.037,0,0,0-.008-.214,6.809,6.809,0,0,0,2.289-3.728c.018-.075.033-.155.05-.23a.567.567,0,0,0,.293-.349c.087-.256.089-.555.2-.792a2.609,2.609,0,0,1,.557-.644,3.349,3.349,0,0,0,.579-2.256c-.015-.664-.1-1.333-.065-1.993l.009-.166c.009-.1.02-.2.033-.293.074-.491.235-.955.325-1.442a2.385,2.385,0,0,0-.111-1.456,1.725,1.725,0,0,0-1.516-.8c-.64-.071-1.211.022-1.621-.677a7.544,7.544,0,0,0-.644-1.024c-.084-.1-.9-.761-.9-.8a2.861,2.861,0,0,0-2.551-.258c-.424.162-.825.428-1.255.561-.929.289-2-.024-2.786.675a4.386,4.386,0,0,0-.95,1.64q-.3.759-.611,1.515a11.727,11.727,0,0,0-.811,2.593,5.36,5.36,0,0,0-.054.606h0v.323a1.4,1.4,0,0,0,.009.2c.009.061.008.081.012.123s.012.135.021.2.027.174.045.261c.008.038.018.073.027.109.015.067.033.133.053.2.011.034.021.069.033.1.023.069.05.137.077.2.012.028.021.053.033.079a2.78,2.78,0,0,0,.138.265c.322.529.8.866,1.147,1.361v.222a7.475,7.475,0,0,0,2.345,5.537c0,.075.008.152.011.228a14.917,14.917,0,0,1-.017,1.765.579.579,0,0,0-.5-.293.554.554,0,0,0-.193.022l-.014-.014h0v.018c-.331.107-.739.561-1.129,1.85,0,0-1.186,1.759-2.089,1.686s-3.189,1.83-3.189,1.83-2.23,1.906-2.709,3.847a32.706,32.706,0,0,1-.96,3.225l-2.757,7.478h0l-.509,5.933s.281,2.639.226,3.041A35.475,35.475,0,0,0,297,269.758s4.008,9.269,5.645,9.744l.117-.109a.831.831,0,0,0,.221.109l.337-.313a6.352,6.352,0,0,1-.026,1.046,36.062,36.062,0,0,0,.479,8.058c.394,1.171.254,16.521.254,16.521l-.056,1.355a.746.746,0,0,0,.014.119l-.014.321.041.028a5,5,0,0,1-.041,1.29,18.724,18.724,0,0,0-.2,2.274s-1.127,9.485-.593,11.39.989,3.994.989,3.994.564,2.377.027,2.783-2.065,1.088-1.75,2.078c.286.915,1.371,3.368,1.532,3.726l-.014.188-.221,3.156a4.968,4.968,0,0,0,.254,1.2c.242.687.713,1.4,1.609,1.323.151-.014.325-.038.494-.067a17.452,17.452,0,0,0,3.657-1.252,1.674,1.674,0,0,1-.286-.311h0a1.28,1.28,0,0,1-.251-.792,28.655,28.655,0,0,0-1-3.986c-.032-.1-.048-.153-.048-.153s1.863-2.563,1.553-4.835c0,0-2.062-1.585-1.383-2.454a28.674,28.674,0,0,0,1.892-3.368s.056-9.34,0-10.735a15.154,15.154,0,0,1,.1-2.9c.023-.145.05-.285.078-.424a15.034,15.034,0,0,0,2.835.283c.346,0,.7,0,1.053-.028q0,.2.014.428c.078,2.314.224,6.371.343,7.878.169,2.161,1.1,7.985,1.1,7.985s-1.777,1.5.31,5.2a6.531,6.531,0,0,1-.138,1.535h0q-.222.952-.357,1.933a4.453,4.453,0,0,0,.018,1.769c.339.876,2.37.8,2.37.8h0l.05-.012a2.466,2.466,0,0,1,2.151.854c.772.816,3.7.458,5.288.2.622-.1,1.037-.2,1.037-.2a1.035,1.035,0,0,0,.021-.285h0c-.017-.513-.322-1.638-2.393-2.643,0,0-1.947-1.723-1.92-3.225h-.266a1.616,1.616,0,0,1,.269,0s-.763-3.665-.452-3.962-.622-4.358-.622-4.358-.534-6.814-.563-7.292a5.384,5.384,0,0,1,.14-1.208l-.14-3.736s-.027-1.242,0-1.646c0-.351-.026-.7-.065-1.048-.013-.139-.027-.283-.042-.426a11.691,11.691,0,0,0,1.2-.469l-.084-13c.62-1.585.734-5.061.731-7.527,0-1.585-.054-2.757-.054-2.757l.847-1.82a8.048,8.048,0,0,0-.114-2.656.565.565,0,0,1,.038-.624,1.63,1.63,0,0,1,.185-.166s-.009-.018-.02-.044a1.58,1.58,0,0,1,.188-.176s-.3-.614-.032-.874c.253.226.479.4.65.535-.012.145-.024.228-.024.228l.072-.2.266.2a31.432,31.432,0,0,0,1.3-3.994,13.7,13.7,0,0,1,.9-2.674,3.1,3.1,0,0,1,.622-1.61c.509-.475.394-3.92.394-3.92a10.718,10.718,0,0,1,.48-2.528C328.356,262.756,327.709,261.767,327.709,261.767Zm-25.4-1.527.026.83-.259-.549Z" transform="translate(-258.312 -180.739)" fill="url(#linear-gradient)"/>
      <path id="Path_211" data-name="Path 211" d="M467.025,492.626l-.325,1.822s-2.6-1.749-3.073-3.972.786-3.066.786-3.066l2.426,1.353Z" transform="translate(-400.945 -396.653)" fill="#fff"/>
      <path id="Path_212" data-name="Path 212" d="M467.025,492.626l-.325,1.822s-2.6-1.749-3.073-3.972.786-3.066.786-3.066l2.426,1.353Z" transform="translate(-400.945 -396.653)" opacity="0.1"/>
      <path id="Path_213" data-name="Path 213" d="M356.46,797.636a15.217,15.217,0,0,1-4.063,1.311c-.879.077-1.341-.632-1.579-1.315a5,5,0,0,1-.248-1.2l.215-3.14.114-1.672,3.517-1.2.5,2,.047.153a28.7,28.7,0,0,1,.978,3.962,1.275,1.275,0,0,0,.247.782A1.644,1.644,0,0,0,356.46,797.636Z" transform="translate(-304.992 -639.639)" fill="#fff"/>
      <path id="Path_214" data-name="Path 214" d="M437.984,795.2a1.032,1.032,0,0,1-.021.283s-5.15,1.131-6.2,0a2.358,2.358,0,0,0-2.167-.836s-1.993.071-2.325-.792a4.491,4.491,0,0,1-.017-1.759q.131-.974.349-1.924l.08-.083.474-.5,5.55-.216h.042c-.027,1.494,1.884,3.207,1.884,3.207C437.661,793.568,437.96,794.687,437.984,795.2Z" transform="translate(-370.069 -638.797)" fill="#fff"/>
      <path id="Path_215" data-name="Path 215" d="M437.989,806.224a1.056,1.056,0,0,1-.023.283s-5.148,1.131-6.2,0a2.358,2.358,0,0,0-2.166-.836s-1.994.071-2.325-.792a4.49,4.49,0,0,1-.018-1.759,4.152,4.152,0,0,1,2.455.953,5.194,5.194,0,0,0,2.686,1.9C432.982,806.018,436.484,806.165,437.989,806.224Z" transform="translate(-370.073 -649.823)" opacity="0.1"/>
      <path id="Path_216" data-name="Path 216" d="M357.871,825.615a15.219,15.219,0,0,1-4.063,1.311c-.879.077-1.341-.632-1.577-1.317.613.271,1.463.557,1.91.3a13.22,13.22,0,0,1,3.461-.594A1.688,1.688,0,0,0,357.871,825.615Z" transform="translate(-306.403 -667.617)" opacity="0.1"/>
      <path id="Path_217" data-name="Path 217" d="M390.851,304.885c-1.987-1.016-4.542-4.374-3.9-5.943a4.421,4.421,0,0,0,.248-1.26,15.133,15.133,0,0,0,.018-1.783q-.067-1.459-.266-2.9s6.2.184,5.841,1.387a5.871,5.871,0,0,0-.093,1.65c.029.685.1,1.46.182,2.116.108.9.217,1.585.217,1.585s-.379.7-.6.737S393.7,306.334,390.851,304.885Z" transform="translate(-335.81 -240.754)" fill="#cf6f80"/>
      <path id="Path_218" data-name="Path 218" d="M356.146,792.577l-.047.067c-1.854-2.952-4.1.727-4.1.727l-.033-.077.114-1.672,3.517-1.2.5,2Z" transform="translate(-306.182 -639.639)" opacity="0.1"/>
      <path id="Path_219" data-name="Path 219" d="M436.164,789.546a2.938,2.938,0,0,0-2.077.8c-.722.84-4.214.182-4.063,0a.8.8,0,0,0,.078-.3l.474-.5,5.55-.216C436.147,789.463,436.164,789.546,436.164,789.546Z" transform="translate(-372.484 -638.765)" opacity="0.1"/>
      <path id="Path_220" data-name="Path 220" d="M349.807,657.572a6.872,6.872,0,0,0-.229,1.016,15.263,15.263,0,0,0-.1,2.884c.056,1.387,0,10.679,0,10.679a29.607,29.607,0,0,1-1.854,3.352c-.664.874,1.354,2.442,1.354,2.442.3,2.258-1.523,4.81-1.523,4.81-1.854-2.952-4.1.729-4.1.729s-1.219-2.773-1.523-3.764,1.19-1.676,1.716-2.078-.026-2.773-.026-2.773-.444-2.078-.971-3.974.581-11.333.581-11.333a19.1,19.1,0,0,1,.194-2.26,4.951,4.951,0,0,0,.041-1.284c-.009-.145-.02-.266-.027-.347s-.014-.119-.014-.119l.021-.048.753-1.846S350.168,656.41,349.807,657.572Z" transform="translate(-297.535 -529.97)" fill="#6c63ff"/>
      <path id="Path_221" data-name="Path 221" d="M426.982,688.376a2.958,2.958,0,0,0-2.077.792c-.722.83-4.214.182-4.063,0a5.875,5.875,0,0,0,.138-1.531c-2.048-3.681-.3-5.174-.3-5.174s-.915-5.794-1.081-7.944c-.116-1.5-.259-5.537-.336-7.84-.033-.99-.053-1.672-.053-1.672l1.674-.444.215-.057,4.036-1.066s.111.99.187,1.8c.037.346.059.695.063,1.044-.027.4,0,1.636,0,1.636l.137,3.718a5.47,5.47,0,0,0-.137,1.2c.027.473.552,7.252.552,7.252s.914,4.045.6,4.336S426.982,688.376,426.982,688.376Z" transform="translate(-363.302 -537.813)" fill="#6c63ff"/>
      <path id="Path_222" data-name="Path 222" d="M393.351,294.387a5.871,5.871,0,0,0-.093,1.65,4.137,4.137,0,0,1-5.481-.135q-.067-1.46-.266-2.9S393.712,293.18,393.351,294.387Z" transform="translate(-336.373 -240.754)" opacity="0.1"/>
      <path id="Path_223" data-name="Path 223" d="M384.127,250.459a8.672,8.672,0,0,1-.253,2.1c-.778,3.138-3.161,5.082-5.643,4.6s-4.34-3.242-4.4-6.542v-.162c0-3.744,2.3-6.779,5.149-6.779s5.15,3.035,5.15,6.779Z" transform="translate(-324.752 -201.204)" fill="#cf6f80"/>
      <path id="Path_224" data-name="Path 224" d="M390.851,323.843c-1.987-1.016-4.542-4.374-3.9-5.943a4.421,4.421,0,0,0,.248-1.26l2.719,2.942L391.6,321.4l1.279-4.287c.108.9.217,1.585.217,1.585s-.379.7-.6.737S393.7,325.291,390.851,323.843Z" transform="translate(-335.81 -259.711)" opacity="0.1"/>
      <path id="Path_225" data-name="Path 225" d="M340.112,276.938l-2.271,50.216-2.962.256-7.669-29.118,1.258-34.569.265-7.3,3.41,3.687,1.684,1.816,1.317-4.412,2.449,2.809Z" transform="translate(-278.039 -199.806)" fill="#6c63ff"/>
      <path id="Path_226" data-name="Path 226" d="M358.479,657.636a6.874,6.874,0,0,0-.229,1.016,18.275,18.275,0,0,1-6.209-2.553l-.041-.028.014-.319.008-.166.753-1.846S358.84,656.474,358.479,657.636Z" transform="translate(-306.207 -530.034)" opacity="0.1"/>
      <path id="Path_227" data-name="Path 227" d="M420.867,671.026a11.76,11.76,0,0,1-1.664.25c-.033-.99-.053-1.672-.053-1.672l1.673-.444Z" transform="translate(-363.251 -542.4)" opacity="0.1"/>
      <path id="Path_228" data-name="Path 228" d="M435.923,665.291a9.02,9.02,0,0,1-4.2.521l-.021-1.256,4.036-1.066S435.848,664.47,435.923,665.291Z" transform="translate(-373.913 -537.853)" opacity="0.1"/>
      <path id="Path_229" data-name="Path 229" d="M321.513,386.588c-6.17,1.387-11.821-2.589-11.821-2.589l.054-1.347s.14-15.271-.248-16.442a36.43,36.43,0,0,1-.471-8.019c.22-.911-.8-14.576-.8-14.576l-.166-5.547L302,334.838l2.709-7.432a32.429,32.429,0,0,0,.942-3.209,9.385,9.385,0,0,1,2.658-3.825s2.242-1.894,3.129-1.823,2.048-1.676,2.048-1.676c.858-2.878,1.634-1.575,1.634-1.575a3.354,3.354,0,0,1-.042.426c-.3,3.16,4.867,13.143,4.941,13.32h0l.492,15.78.5,19.97Z" transform="translate(-263.732 -258.399)" opacity="0.1"/>
      <path id="Path_230" data-name="Path 230" d="M320.388,386.54c-6.17,1.387-11.823-2.589-11.823-2.589l.056-1.347s.14-15.271-.25-16.442a36.24,36.24,0,0,1-.47-8.019c.221-.911-.8-14.576-.8-14.576l-.167-5.547-6.062-3.243,2.709-7.432a32.938,32.938,0,0,0,.942-3.209,9.37,9.37,0,0,1,2.658-3.825s2.242-1.894,3.127-1.822,2.048-1.676,2.048-1.676c.859-2.878,1.806-1.575,1.806-1.575,0,.137-.09.2-.042.426.662,3.064,4.7,13.143,4.775,13.32h0l.5,15.78.5,19.97Z" transform="translate(-262.772 -258.351)" fill="#fff"/>
      <path id="Path_231" data-name="Path 231" d="M387.424,331.291c-.664-.365-4.179-5.648-4.179-5.648v-1.2c-.128-.4-.888-.155-1.5.123l.265-7.3.3.329C382.965,320.651,387.348,331.115,387.424,331.291Z" transform="translate(-331.471 -260.208)" opacity="0.1"/>
      <path id="Path_232" data-name="Path 232" d="M388.526,329.081c-.665-.365-4.181-5.648-4.181-5.648v-1.2c-.128-.4-.888-.155-1.5.123l.266-7.3.3.329C384.068,318.441,388.452,328.907,388.526,329.081Z" transform="translate(-332.406 -258.436)" fill="#fff"/>
      <path id="Path_233" data-name="Path 233" d="M351.2,516.532c.083,0,4.291-.582,4.291-.582s2.548,6.594,2.381,8.2-.47,3.025-1.494,2.773a34.624,34.624,0,0,0-5.516.2Z" transform="translate(-305.239 -419.539)" opacity="0.1"/>
      <path id="Path_234" data-name="Path 234" d="M350.089,514.322c.083,0,4.291-.582,4.291-.582s2.546,6.6,2.381,8.2-.471,3.025-1.494,2.773a34.619,34.619,0,0,0-5.516.2Z" transform="translate(-304.296 -417.767)" fill="#fff"/>
      <path id="Path_235" data-name="Path 235" d="M360.081,501.05s3.862,2.732,3.944,3.566-1.965-.365-2.408-.509a4.3,4.3,0,0,0-.886-.182l-2.951.105Z" transform="translate(-311.117 -407.591)" fill="#cf6f80"/>
      <ellipse id="Ellipse_27" data-name="Ellipse 27" cx="0.406" cy="0.535" rx="0.406" ry="0.535" transform="translate(54.469 70.353)" opacity="0.1"/>
      <ellipse id="Ellipse_28" data-name="Ellipse 28" cx="0.406" cy="0.535" rx="0.406" ry="0.535" transform="translate(54.469 70.136)" fill="#3f3d56"/>
      <ellipse id="Ellipse_29" data-name="Ellipse 29" cx="0.406" cy="0.535" rx="0.406" ry="0.535" transform="translate(55.217 93.506)" opacity="0.1"/>
      <ellipse id="Ellipse_30" data-name="Ellipse 30" cx="0.406" cy="0.535" rx="0.406" ry="0.535" transform="translate(55.217 93.287)" fill="#3f3d56"/>
      <ellipse id="Ellipse_31" data-name="Ellipse 31" cx="0.406" cy="0.535" rx="0.406" ry="0.535" transform="translate(54.874 81.93)" opacity="0.1"/>
      <ellipse id="Ellipse_32" data-name="Ellipse 32" cx="0.406" cy="0.535" rx="0.406" ry="0.535" transform="translate(54.874 81.712)" fill="#3f3d56"/>
      <path id="Path_236" data-name="Path 236" d="M434.482,357.713s.277.547,0,.8.027.874.027.874-.691.533-.387,1.012a8.131,8.131,0,0,1,.111,2.645l-.831,1.811s.05,1.167.053,2.744c0,2.46-.11,5.919-.718,7.5l.084,12.937a10.519,10.519,0,0,1-5.344.973l-.361-20.76s.527-11.773.721-14.031a30.883,30.883,0,0,0,.138-3.536,51.73,51.73,0,0,0-.361-5.174s-.3-7.106-.331-9.073c-.014-.941.024-3.686.066-6.3.047-2.854.1-5.547.1-5.547l-.549-5.721s.549-.073.715.218a1.73,1.73,0,0,0,.241.244h0c.948.844,4.3,3.439,4.3,3.439a5.207,5.207,0,0,1,2.3,2.361,24.055,24.055,0,0,0,.968,2.773,11,11,0,0,1,.333,2.258s.638,3.427,1.136,4.007.862,4.273.862,4.273l-4.4,4.556s-.387,7.579-.47,7.872S434.482,357.713,434.482,357.713Z" transform="translate(-369.835 -261.49)" fill="#fff"/>
      <path id="Path_237" data-name="Path 237" d="M434.59,357.457s.275.547,0,.8.026.874.026.874-.686.539-.385,1.018a8.217,8.217,0,0,1,.111,2.645l-.831,1.811s.05,1.167.054,2.744c0,2.46-.11,5.919-.718,7.5l.083,12.937a10.536,10.536,0,0,1-5.346.973l-.36-20.76s.527-11.773.721-14.031a30.587,30.587,0,0,0,.137-3.536s-.083-3.534-.36-5.174c0,0-.3-7.106-.333-9.073-.014-.941.026-3.686.066-6.3.047-2.854.1-5.547.1-5.547l-.725-5.8s.725,0,.892.3a1.559,1.559,0,0,0,.241.244h0c.948.844,4.3,3.439,4.3,3.439a5.207,5.207,0,0,1,2.3,2.361,23.674,23.674,0,0,0,.969,2.773,10.878,10.878,0,0,1,.331,2.258s.638,3.427,1.136,4.007.858,4.265.858,4.265l-4.4,4.556s-.387,7.579-.471,7.872S434.59,357.457,434.59,357.457Z" transform="translate(-369.776 -261.235)" fill="#fff"/>
      <path id="Path_238" data-name="Path 238" d="M430.261,327.776l.4,1.525-2.092,2.773c.047-2.853.1-5.547.1-5.547l-.725-5.8s.725,0,.892.3a1.492,1.492,0,0,0,.241.242h0l1.779,6.755Z" transform="translate(-370.719 -262.991)" opacity="0.1"/>
      <path id="Path_239" data-name="Path 239" d="M429.151,325.566l.4,1.525-2.092,2.773c.047-2.855.1-5.547.1-5.547l-.727-5.8s.727,0,.892.3a1.64,1.64,0,0,0,.241.244h0l1.78,6.753Z" transform="translate(-369.776 -261.219)" fill="#fff"/>
      <path id="Path_240" data-name="Path 240" d="M384.127,250.459a8.675,8.675,0,0,1-.253,2.1.178.178,0,0,1-.163-.054,10.384,10.384,0,0,0-1.526-4.881,4.791,4.791,0,0,0-.828-1.129,1.356,1.356,0,0,0-1.123-.418c-.451.081-.85.485-1.306.537-.6.065-1.141-.483-1.738-.511a1.579,1.579,0,0,0-1.278.781,5.206,5.206,0,0,0-.685,1.672,12.606,12.606,0,0,0-.382,2.884c-.008.555-.048,1.25-.439,1.452a3.6,3.6,0,0,0-.567-2.26l-.009-.012v-.162c0-3.744,2.3-6.779,5.149-6.779s5.15,3.035,5.15,6.779Z" transform="translate(-324.752 -201.204)" opacity="0.1"/>
      <path id="Path_241" data-name="Path 241" d="M372.232,221.773a2.774,2.774,0,0,0-2.5-.258c-.417.162-.81.426-1.233.559-.9.287-1.956-.024-2.732.672a4.4,4.4,0,0,0-.93,1.63l-.6,1.509a11.729,11.729,0,0,0-.8,2.575,4.154,4.154,0,0,0,.384,2.658c.319.533.79.868,1.136,1.369a3.611,3.611,0,0,1,.566,2.258c.393-.2.43-.9.439-1.45a12.606,12.606,0,0,1,.382-2.884,5.191,5.191,0,0,1,.685-1.672,1.582,1.582,0,0,1,1.278-.78c.6.028,1.142.574,1.738.509.451-.05.852-.456,1.306-.535a1.351,1.351,0,0,1,1.123.418,4.745,4.745,0,0,1,.826,1.129,10.354,10.354,0,0,1,1.528,4.881c.17.164.415-.049.5-.3s.087-.551.194-.792a2.568,2.568,0,0,1,.545-.638,3.392,3.392,0,0,0,.569-2.244,14.7,14.7,0,0,1-.021-2.44c.071-.491.23-.951.318-1.436a2.416,2.416,0,0,0-.108-1.448,1.666,1.666,0,0,0-1.487-.792c-.628-.071-1.189.02-1.589-.675a7.559,7.559,0,0,0-.632-1.018C373.038,222.47,372.232,221.817,372.232,221.773Z" transform="translate(-315.873 -183.281)" fill="#512e4e"/>
      <path id="Path_242" data-name="Path 242" d="M301.831,418.957l-1.573-3.827-.5,5.905s.277,2.623.221,3.025a35.309,35.309,0,0,0,1.135,4.007s3.932,9.219,5.538,9.695l5.425-5.1-1.439-2.4s-.5-.255-.623,0c0,0-2.671-6.05-2.948-6.488a2.782,2.782,0,0,1-.223-1.311,1.587,1.587,0,0,1-.277-1.129,7.21,7.21,0,0,0-.8-2.442l.858-1.056Z" transform="translate(-261.829 -338.691)" opacity="0.1"/>
      <path id="Path_243" data-name="Path 243" d="M298.464,412.93l-.415.436-.5,5.905s.277,2.623.221,3.025a35.3,35.3,0,0,0,1.136,4.007s3.931,9.219,5.537,9.695l5.427-5.1-1.44-2.4s-.5-.256-.623,0c0,0-2.671-6.05-2.948-6.488a2.774,2.774,0,0,1-.221-1.311,1.587,1.587,0,0,1-.277-1.129,7.207,7.207,0,0,0-.8-2.443l.858-1.056Z" transform="translate(-259.952 -336.927)" fill="#fff"/>
      <path id="Path_244" data-name="Path 244" d="M457.167,515.428a8.207,8.207,0,0,1,.111,2.643l-.831,1.811s.05,1.169.053,2.744l-1.4.574a.674.674,0,0,1-.749-.173,1.246,1.246,0,0,1-.327-.9l.241-10.224,3.258,1.64c-.277.254.027.876.027.876S456.863,514.947,457.167,515.428Z" transform="translate(-392.88 -416.292)" opacity="0.1"/>
      <path id="Path_245" data-name="Path 245" d="M458.269,514.326a8.219,8.219,0,0,1,.111,2.645l-.831,1.811s.05,1.167.054,2.744l-1.422.584a.661.661,0,0,1-.733-.17,1.221,1.221,0,0,1-.321-.884l.242-10.255,3.26,1.64c-.278.254.026.874.026.874S457.968,513.847,458.269,514.326Z" transform="translate(-393.814 -415.41)" fill="#fff"/>
      <path id="Path_246" data-name="Path 246" d="M468.457,497.543s-.221,1.86-.775,1.969-.8,3.009-1.354,2.906-.187-2.7-.167-3.2-.6-2.587-.137-3.06,1.937,0,1.937,0Z" transform="translate(-402.923 -403.499)" fill="#cf6f80"/>
      <path id="Path_247" data-name="Path 247" d="M466.428,420.463l1.044-2.773a23.225,23.225,0,0,1,.415,3.243c0,1.129.581,1.24.581,1.24s.637.991.3,1.712a10.551,10.551,0,0,0-.471,2.516s.11,3.425-.388,3.9a3.088,3.088,0,0,0-.6,1.6,13.7,13.7,0,0,0-.886,2.66,31.45,31.45,0,0,1-1.273,3.972s.637-4.3-3.073-6.159a5.184,5.184,0,0,1,.248-1.86c.277-.4.709-.582.438-2.6a31.057,31.057,0,0,1-.078-4.925c0-.485.831-3.512.831-3.512Z" transform="translate(-399.716 -340.744)" opacity="0.1"/>
      <path id="Path_248" data-name="Path 248" d="M468.655,415.69l.912.4a23.146,23.146,0,0,1,.417,3.243c0,1.129.581,1.24.581,1.24s.637.99.3,1.711a10.525,10.525,0,0,0-.47,2.516s.11,3.425-.388,3.9a3.123,3.123,0,0,0-.61,1.6,13.714,13.714,0,0,0-.885,2.66,31.43,31.43,0,0,1-1.275,3.972s.638-4.3-3.073-6.159a5.193,5.193,0,0,1,.25-1.86c.277-.4.709-.582.438-2.6a31.057,31.057,0,0,1-.078-4.925c0-.485.831-3.512.831-3.512Z" transform="translate(-401.492 -339.14)" fill="#fff"/>
      <path id="Path_249" data-name="Path 249" d="M360.15,775.941s1.454-1.2,2.408-.329S360.15,775.941,360.15,775.941Z" transform="translate(-313.131 -627.509)" opacity="0.1"/>
      <path id="Path_250" data-name="Path 250" d="M435.21,759.747a2.575,2.575,0,0,1,2.367,1.313C438.658,762.591,435.21,759.747,435.21,759.747Z" transform="translate(-376.894 -615.033)" opacity="0.1"/>
      <g id="Group_20" data-name="Group 20" transform="translate(47.506 42.401)" opacity="0.1">
        <path id="Path_251" data-name="Path 251" d="M388.221,257.145a2.583,2.583,0,0,0-.546.64c-.105.24-.108.535-.193.792s-.33.467-.5.305A10.4,10.4,0,0,0,385.455,254a4.744,4.744,0,0,0-.826-1.129,1.354,1.354,0,0,0-1.124-.418c-.451.081-.849.485-1.3.535-.6.067-1.142-.481-1.74-.509a1.577,1.577,0,0,0-1.276.782,5.177,5.177,0,0,0-.685,1.67,12.617,12.617,0,0,0-.382,2.884c-.009.553-.048,1.242-.436,1.448a3.571,3.571,0,0,1,0,.44c.391-.2.43-.9.439-1.45a12.606,12.606,0,0,1,.382-2.884,5.19,5.19,0,0,1,.685-1.672,1.58,1.58,0,0,1,1.276-.781c.6.028,1.144.574,1.74.509.451-.05.852-.456,1.3-.535a1.354,1.354,0,0,1,1.124.418,4.745,4.745,0,0,1,.826,1.129,10.371,10.371,0,0,1,1.528,4.881c.17.164.415-.05.5-.3s.087-.551.193-.792a2.575,2.575,0,0,1,.546-.638,3.393,3.393,0,0,0,.569-2.244v-.075A3.079,3.079,0,0,1,388.221,257.145Z" transform="translate(-375.529 -250.631)"/>
        <path id="Path_252" data-name="Path 252" d="M364.967,263.369c-.346-.5-.819-.836-1.136-1.367a3.518,3.518,0,0,1-.438-1.622,3.783,3.783,0,0,0,.438,2.058c.318.533.79.868,1.136,1.369a3.506,3.506,0,0,1,.567,1.767A3.6,3.6,0,0,0,364.967,263.369Z" transform="translate(-363.385 -256.997)"/>
        <path id="Path_253" data-name="Path 253" d="M451.384,243.692c-.089.485-.247.947-.319,1.436a6,6,0,0,0-.047.99,5.014,5.014,0,0,1,.047-.563c.072-.491.23-.951.319-1.436a3.188,3.188,0,0,0,.05-.82A3.573,3.573,0,0,1,451.384,243.692Z" transform="translate(-437.827 -243.3)"/>
      </g>
      <ellipse id="Ellipse_33" data-name="Ellipse 33" cx="14.664" cy="3.1" rx="14.664" ry="3.1" transform="translate(5.239 150.286)" fill="#6c63ff" opacity="0.1"/>
      <rect id="Rectangle_101" data-name="Rectangle 101" width="0.944" height="27.965" transform="translate(19.432 93.998)" fill="#535461"/>
      <path id="Path_254" data-name="Path 254" d="M150.247,636.828l-.059,1.26-.084,1.783-.035.741-.083,1.783-.036.741-.084,1.783-.951,20.219c-.086,1.806-1.223,3.212-2.6,3.213h-4.945c-1.374,0-2.511-1.408-2.6-3.213L137.83,644.9l-.084-1.783-.035-.741-.084-1.783-.035-.741-.084-1.783-.06-1.26a2.139,2.139,0,0,1,.369-1.327,1.227,1.227,0,0,1,.986-.557h10.115a1.228,1.228,0,0,1,.977.57A2.137,2.137,0,0,1,150.247,636.828Z" transform="translate(-123.942 -514.951)" fill="#3f3d56"/>
      <path id="Path_255" data-name="Path 255" d="M103.267,592.24l-.084,1.777H90.664l-.084-1.777Z" transform="translate(-77.02 -469.103)" fill="#9d9cb5"/>
      <path id="Path_256" data-name="Path 256" d="M103.819,604.95l-.083,1.779H91.454l-.084-1.779Z" transform="translate(-77.691 -479.295)" fill="#9d9cb5"/>
      <path id="Path_257" data-name="Path 257" d="M104.371,617.68l-.083,1.777H92.244l-.084-1.777Z" transform="translate(-78.363 -489.503)" fill="#9d9cb5"/>
      <path id="Path_258" data-name="Path 258" d="M59.865,534.291c5.495,5.234,7.788,13.419,7.788,13.419a20.617,20.617,0,0,1-12.118-5.533c-5.5-5.234-7.785-13.417-7.785-13.417A20.6,20.6,0,0,1,59.865,534.291Z" transform="translate(-47.745 -429.812)" fill="#6c63ff"/>
      <path id="Path_259" data-name="Path 259" d="M47.72,528.76s6.875,5.022,9.079,9.18,10.828,9.77,10.828,9.77" transform="translate(-47.72 -429.812)" fill="none" stroke="#535461" stroke-miterlimit="10" stroke-width="2"/>
      <path id="Path_260" data-name="Path 260" d="M114.595,491.271a18.287,18.287,0,0,1,4.241,7.3,11.227,11.227,0,0,1-6.6-3.009,18.255,18.255,0,0,1-4.239-7.3A11.219,11.219,0,0,1,114.595,491.271Z" transform="translate(-98.928 -397.335)" fill="#6c63ff"/>
      <path id="Path_261" data-name="Path 261" d="M108,488.26s3.741,2.734,4.941,5,5.895,5.317,5.895,5.317" transform="translate(-98.928 -397.335)" fill="none" stroke="#535461" stroke-miterlimit="10" stroke-width="2"/>
      <path id="Path_262" data-name="Path 262" d="M185.353,512.717a28.539,28.539,0,0,0-4.163,11.466,17.839,17.839,0,0,0,8.277-6.537,28.6,28.6,0,0,0,4.163-11.466A17.869,17.869,0,0,0,185.353,512.717Z" transform="translate(-161.103 -411.705)" fill="#6c63ff"/>
      <path id="Path_263" data-name="Path 263" d="M193.633,506.19s-4.476,5.095-5.613,8.605-6.829,9.4-6.829,9.4" transform="translate(-161.103 -411.713)" fill="none" stroke="#535461" stroke-miterlimit="10" stroke-width="2"/>
      <path id="Path_264" data-name="Path 264" d="M856.247,316.515s-2.485-16.271-1.534-18.3c0,0,.035-1.882-.023-4.281v-.275a4.528,4.528,0,0,0,.522.4,3.335,3.335,0,0,0,2.844.483l-.752-1.1a2,2,0,0,1-.408-.9,2.384,2.384,0,0,1,.162-.971c.715-2.377.753-5.366-.625-7.181-1.163-1.525-1.446-3.494-2.709-4.887a11.121,11.121,0,0,1-1.908-3.962,27.146,27.146,0,0,1-1.044-3.75c-.181-1.012-.253-2.06-.5-3.049a3.87,3.87,0,0,0-1.44-2.391,4.892,4.892,0,0,1-.783-.454,4.362,4.362,0,0,1-.721-1.115c-1.139-1.981-4.954-.814-6.76-.01a3.674,3.674,0,0,0-1.336.975l.017-.036c.014-.03.03-.059.045-.089a3,3,0,0,0-.506.743c-.263.549-.373,1.189-.593,1.783-.265.7-1.738,2.666-1.1,3.457a.541.541,0,0,0,.151.127,1.015,1.015,0,0,0,.752.1l-.027.085a7.412,7.412,0,0,0-.327,2.2c0,3.255,2.039,5.893,4.557,5.893a3.6,3.6,0,0,0,1.4-.283c.011.075.02.151.03.226a.887.887,0,0,0,.011.089h0l-.08.147a.219.219,0,0,0-.014-.026l-2.363,4.346c-.361.335-2.441,2.316-2.558,3.8-.123,1.626-.247,3.53-.247,3.53l-.017.408a.779.779,0,0,1-.752.267c-.737-.159-.737,3.566-.737,3.566s-.491.594-.828.079-1.228,1.23-1.228,1.23l-5.583.317h0l-.128.01-.3-1.226c-.067-.269-.287-.417-.492-.331a.4.4,0,0,0-.068.038l-.021.016-.039.036-.02.024a.383.383,0,0,0-.03.042l-.018.028-.009.012h0a.632.632,0,0,0-.054.444l.259,1.052c-1.078.285-2.179,1.09-1.281,3.3l-4.554-1.107,1.473,1.628,7.606,2.066c-.1.238-.035.582.28,1.068a7,7,0,0,0,4.816,2.809,12.433,12.433,0,0,0,.977,2.179l-.086,2.086s-2.515,15.9-2.975,16.705a9.623,9.623,0,0,0,.637-1.1c-.73,3.267-1.75,7.738-2.018,8.407-.43,1.07-.829,5.4-.339,5.675a3.149,3.149,0,0,0,1.195-.018v.359l-.027,13.587s.123,8.334-.215,9.128a9.915,9.915,0,0,0-.429,2.46,25.609,25.609,0,0,1-2.427,4.608.183.183,0,0,1-.024.028l-.033-.309a4.69,4.69,0,0,1-4.143,2.022s-1.717,1.47.829,1.549,5.8-.119,5.8-.119,2.271-4.556,4.173-3.962v3.453h.582v-3.508a3.328,3.328,0,0,0,1.037-2.066,2.964,2.964,0,0,0-.68-2.324,1.724,1.724,0,0,1-.372-1.086l-.021.024c0-.069-.014-.141-.02-.214a25.86,25.86,0,0,1,.363-8.183c1.013-3.732,1.32-8.93.583-12.024q-.357-1.484-.585-3.013c-.018-.129-.035-.252-.05-.366a9.411,9.411,0,0,1,1.494.4c1.708.62,5.445.735,8.635.7.008.115.016.236.027.357a16.7,16.7,0,0,0,.355,2.48,82.728,82.728,0,0,1,.584,8.572,59.568,59.568,0,0,1,.235,8.082c-.151,1.3-.3,2.6-.387,3.916v.026s-.846,3.169-1.464,4.891c-.015.044-.032.087-.047.129a1.565,1.565,0,0,0-.483.141s-.829,2.179-1.655,2.54-.552,1.547,1.318,1.111,4.7-.792,4.7-.792l.122-2.223.575-.947-.15,2.217.612-.158-.081-2.7.94-1.549s1.136-1.331-.552-3.95v.057c-.018-.038-.035-.077-.054-.115v-.012A5.444,5.444,0,0,1,853,361.24c.737-3.411,1.166-6.507,1.166-6.507s1.646-8.294-.333-12.218h.087a8.163,8.163,0,0,1-.426-1.743q-.015-.107-.027-.22a8.75,8.75,0,0,0,4.074-1.212C857.537,339.331,856.831,319.649,856.247,316.515Zm-18.591-13.728v.04l-.3.02Zm-1.032.188a.307.307,0,0,0-.135.085,2.12,2.12,0,0,0-.236.814l-.47-.139s-.33-.093-.8-.2l-.224-.3C835.372,303.173,836.013,303.074,836.624,302.975Z" transform="translate(-705.874 -217.252)" fill="url(#linear-gradient-2)"/>
      <path id="Path_265" data-name="Path 265" d="M971.5,741.926l-.179,2.807.6-.158-.09-3.045Z" transform="translate(-825.213 -588.82)" fill="#1d2366"/>
      <path id="Path_266" data-name="Path 266" d="M882.5,666.854a26.247,26.247,0,0,0-.357,8.155c.06.658.116,1.058.116,1.058s-1.082,3.245-1.172,3.368-3.184,2.609-3.184,2.609l-2.163,1.662s-2.194-1.266-1.142-1.7a1.66,1.66,0,0,0,.567-.509,25.51,25.51,0,0,0,2.376-4.592,10.084,10.084,0,0,1,.421-2.452c.331-.79.211-9.1.211-9.1l.026-13.54V650.05l4.116.04a15.959,15.959,0,0,0,.178,1.783q.222,1.522.573,3C883.793,657.964,883.492,663.136,882.5,666.854Z" transform="translate(-749.915 -527.075)" fill="#ffb0b1"/>
      <path id="Path_267" data-name="Path 267" d="M882.26,777.124s-1.082,3.245-1.172,3.367S877.9,783.1,877.9,783.1l-2.163,1.662s-2.194-1.266-1.142-1.7a1.661,1.661,0,0,0,.567-.509l.093.866.721-.04,6.17-7.308C882.2,776.724,882.26,777.124,882.26,777.124Z" transform="translate(-749.915 -628.132)" opacity="0.1"/>
      <path id="Path_268" data-name="Path 268" d="M860.607,777l-6.205,7.357-.721.04-.151-1.387a4.582,4.582,0,0,1-4.063,2.017s-1.683,1.464.811,1.543,5.678-.119,5.678-.119,2.224-4.556,4.086-3.962v3.441h.572v-3.472a3.331,3.331,0,0,0,1.014-2.06,2.989,2.989,0,0,0-.664-2.314A1.742,1.742,0,0,1,860.607,777Z" transform="translate(-728.336 -628.877)" fill="#1d2366"/>
      <path id="Path_269" data-name="Path 269" d="M992,670.488A5.512,5.512,0,0,0,992.1,674v.012a7.749,7.749,0,0,1,.719,2.312l.024.178-2.823,5.418-1.532.792s-2.464-1.107-2.014-1.424a3.274,3.274,0,0,0,.491-1.058c.6-1.713,1.433-4.875,1.433-4.875v-.026c.087-1.305.226-2.607.379-3.9a60.4,60.4,0,0,0-.23-8.054,84.189,84.189,0,0,0-.572-8.542,16.8,16.8,0,0,1-.351-2.464c-.081-.99-.1-1.807-.1-1.807s1.622-2.971,4.6.238a4.093,4.093,0,0,1,.622.887c2.054,3.847.4,12.321.4,12.321S992.725,667.087,992,670.488Z" transform="translate(-845.146 -526.478)" fill="#ffb0b1"/>
      <path id="Path_270" data-name="Path 270" d="M992.869,776.269l-2.823,5.418-1.532.792s-2.464-1.107-2.014-1.424a3.269,3.269,0,0,0,.491-1.058c1.043-.012,1.583,1.3,1.583,1.3l1.321-.277s1.743-4.509,2.134-4.784.06-2.058.06-2.058v-.454c.01.016.02.034.032.05v.012a7.747,7.747,0,0,1,.719,2.312Z" transform="translate(-845.171 -626.247)" opacity="0.1"/>
      <path id="Path_271" data-name="Path 271" d="M977.2,781.875s-.753-1.819-2.194-1.147c0,0-.811,2.179-1.622,2.532s-.54,1.541,1.293,1.107,4.6-.792,4.6-.792l.12-2.217,1.863-3.124s1.111-1.325-.542-3.934v.454s.331,1.783-.06,2.058-2.128,4.786-2.128,4.786Z" transform="translate(-833.706 -626.712)" fill="#1d2366"/>
      <path id="Path_272" data-name="Path 272" d="M904.261,650.07a15.947,15.947,0,0,0,.178,1.783,14.376,14.376,0,0,0-4.3-.057V650.03Z" transform="translate(-771.855 -527.059)" opacity="0.1"/>
      <path id="Path_273" data-name="Path 273" d="M999.179,652.168s-2.408.154-5.279.186c-.081-.99-.1-1.807-.1-1.807s1.622-2.971,4.6.238a4.091,4.091,0,0,1,.622.887Q999.088,651.927,999.179,652.168Z" transform="translate(-851.419 -526.47)" opacity="0.1"/>
      <path id="Path_274" data-name="Path 274" d="M911.773,511.346s-10.547.672-13.761-.515-6.4-.158-6.881-.434-.09-4.588.331-5.656,2.733-11.866,2.733-11.866l2.224-15.265,2.343-.85.165-.061,4.083-1.482L906,474.13s5.949,30.572,5.439,32.826a7.544,7.544,0,0,0-.087,2.652A8.2,8.2,0,0,0,911.773,511.346Z" transform="translate(-764.014 -386.004)" fill="#1d2366"/>
      <path id="Path_275" data-name="Path 275" d="M869.742,439s-2.107,2.971-.512,4.627,2.644.159,2.644.159Z" transform="translate(-745.09 -357.833)" fill="#c7daf5"/>
      <path id="Path_276" data-name="Path 276" d="M869.742,439s-2.107,2.971-.512,4.627,2.644.159,2.644.159Z" transform="translate(-745.09 -357.833)" opacity="0.1"/>
      <path id="Path_277" data-name="Path 277" d="M963.667,318.454s-.247.309-.619.765c-.53.652-1.314,1.6-2.009,2.4-.963,1.1-1.758,1.914-1.473,1.222a6.96,6.96,0,0,0,.089-3.023c-.011-.075-.02-.151-.03-.224q-.176-1.242-.465-2.448a41.522,41.522,0,0,1,2.417-3.69c.32-.4.545-.559.558-.283a11.448,11.448,0,0,0,.488,2.056c.008.028.015.054.024.081.175.594.372,1.2.545,1.731C963.457,317.852,963.667,318.454,963.667,318.454Z" transform="translate(-821.992 -256.823)" fill="#ffb0b1"/>
      <path id="Path_278" data-name="Path 278" d="M962.647,315.322a5.638,5.638,0,0,1-2.992,4.509,26.176,26.176,0,0,0-.5-2.672s2.93-4.982,2.975-3.974A11.72,11.72,0,0,0,962.647,315.322Z" transform="translate(-821.992 -256.832)" opacity="0.1"/>
      <path id="Path_279" data-name="Path 279" d="M928.7,351.153l.379-.7s.251,2.017,1.175,1.127.969,6.694.969,6.694l-.992,19.518-7.167-.565.2-9.431.811-4.754,2.006-6.911,1.193-2.284Z" transform="translate(-791.334 -286.824)" opacity="0.1"/>
      <path id="Path_280" data-name="Path 280" d="M931.254,358.841l-.9,17.648-.095,1.87-4-.315-.15-.012-3.01-.238.2-9.433.811-4.754,2.006-6.911,1.193-2.284,1.421-2.7.379-.7s.251,2.017,1.175,1.127l.02-.018h0C931.212,351.367,931.254,358.841,931.254,358.841Z" transform="translate(-791.359 -287.273)" fill="#1d2366"/>
      <path id="Path_281" data-name="Path 281" d="M878.087,406.26s-.36.99-1.082.83-.721,3.566-.721,3.566-.48.594-.811.079-1.2,1.226-1.2,1.226l-5.469.317s2.433,1.464,1.956,5.893c0,0,8.262-.674,8.533-1.7S878.087,406.26,878.087,406.26Z" transform="translate(-745.231 -331.578)" fill="#fff"/>
      <path id="Path_282" data-name="Path 282" d="M878.087,406.26s-.36.99-1.082.83-.721,3.566-.721,3.566-.48.594-.811.079-1.2,1.226-1.2,1.226l-5.469.317s2.433,1.464,1.956,5.893c0,0,8.262-.674,8.533-1.7S878.087,406.26,878.087,406.26Z" transform="translate(-745.231 -331.578)" opacity="0.03"/>
      <path id="Path_283" data-name="Path 283" d="M777.66,389.76l1.442,1.62,11.868,3.282-1.472-1.977Z" transform="translate(-660.698 -306.733)" fill="#fff"/>
      <path id="Path_284" data-name="Path 284" d="M912.162,349.652c-.2.4-.761,2.425-1.233,4.2-.393,1.476-.721,2.773-.721,2.773s-.766,6.565-1.157,7.751-.179,5.814-.179,5.814l-1.458,11.428a72.667,72.667,0,0,1-1.681,9.413,18.939,18.939,0,0,1-2.163,5.141c.452-.8,2.912-16.64,2.912-16.64l.813-19.972s.119-1.9.239-3.52,2.558-3.837,2.558-3.837l2.351-4.4A2.2,2.2,0,0,1,912.162,349.652Z" transform="translate(-774.768 -284.699)" fill="#fff"/>
      <path id="Path_285" data-name="Path 285" d="M889.147,468.986s-3.461-.2-5.138-2.849,3.875-1.058,3.875-1.058l1.443.436Z" transform="translate(-757.883 -378.365)" fill="#ffb0b1"/>
      <path id="Path_286" data-name="Path 286" d="M955.769,412.577a7.547,7.547,0,0,0-.087,2.652,22.17,22.17,0,0,1-7.815-.99,17.576,17.576,0,0,1-2.734,2.254l-1.081-17.63c-.691-2.377-.962-14.831-.962-14.831s.062-.652.151-1.628a.242.242,0,0,1,.008-.073c.269-2.728.8-7.848,1.065-8.54.361-.951-1.111-3.48-1.111-3.48l.67-7.518.081-.907c1.412-.83,2.494-3.48,2.494-3.48l.831-1.916h0c.9-.763.95,6.711.95,6.711l-.9,17.648,2.992-1.088S956.28,410.322,955.769,412.577Z" transform="translate(-808.341 -291.623)" opacity="0.1"/>
      <path id="Path_287" data-name="Path 287" d="M960.664,394.682c-4.116,2.69-11.6.2-11.6.2a17.573,17.573,0,0,1-2.734,2.254L945.25,379.5c-.689-2.377-.96-14.831-.96-14.831s.87-9.293,1.231-10.241a1.972,1.972,0,0,0-.071-1.133,18.566,18.566,0,0,1-.659-6.634l.289-3.231.08-.905c1.413-.832,2.5-3.482,2.5-3.482l.752-1.735,1.385-3.2.656-1.513.111.133.85,1.014.9.99c1.178,1.307,3.215,3.609,4.265,5.018.924,1.24,1.216,6.064,1.3,9.695.056,2.391.023,4.265.023,4.265-.932,2.019,1.505,18.225,1.505,18.225C959.973,375.071,960.664,394.682,960.664,394.682Z" transform="translate(-809.36 -272.51)" fill="#fff"/>
      <path id="Path_288" data-name="Path 288" d="M929.1,363.809s-2.825,7.078-2.5,9.768,1.261,5.735.811,6.446a1.572,1.572,0,0,1-1.323.87,4.3,4.3,0,0,0-1.656,1.266,12.608,12.608,0,0,0-2.107.673,10.669,10.669,0,0,1-2.464.87s-2.859-.119-3.126.238a6.842,6.842,0,0,0,.03,4.192c.57,1.7,1.2,2.971,1.683,3.2s3.516-1.107,5.979-1.424,5.138-2.886,5.138-2.886,2.945-1.387,3.461-3.718-.631-15.146-.631-15.146S931.532,362.187,929.1,363.809Z" transform="translate(-785.695 -297.312)" opacity="0.03"/>
      <path id="Path_289" data-name="Path 289" d="M926.723,360.811s-2.825,7.08-2.494,9.768,1.261,5.735.81,6.448a1.565,1.565,0,0,1-1.321.87,4.3,4.3,0,0,0-1.656,1.266,12.707,12.707,0,0,0-2.107.672,10.774,10.774,0,0,1-2.464.87s-2.859-.119-3.124.238a6.842,6.842,0,0,0,.03,4.192c.572,1.7,1.2,2.971,1.682,3.2s3.516-1.107,5.979-1.422,5.138-2.888,5.138-2.888,2.944-1.387,3.454-3.716-.631-15.148-.631-15.148S929.156,359.191,926.723,360.811Z" transform="translate(-783.681 -294.909)" opacity="0.03"/>
      <path id="Path_290" data-name="Path 290" d="M928.525,362.02s-2.825,7.08-2.494,9.768,1.261,5.735.811,6.446a1.566,1.566,0,0,1-1.323.872,4.322,4.322,0,0,0-1.655,1.264,12.447,12.447,0,0,0-2.107.674,10.692,10.692,0,0,1-2.464.87s-2.859-.119-3.126.238a6.843,6.843,0,0,0,.03,4.192c.57,1.7,1.2,2.971,1.683,3.2s3.516-1.107,5.979-1.424S929,385.235,929,385.235s2.945-1.387,3.461-3.718-.623-15.146-.623-15.146S930.957,360.408,928.525,362.02Z" transform="translate(-785.211 -295.88)" fill="#fff"/>
      <path id="Path_291" data-name="Path 291" d="M990.345,458.284s-2.257-.594-1.472.4.781,1.858,1.743,1.818S990.345,458.284,990.345,458.284Z" transform="translate(-847.092 -373.155)" opacity="0.1"/>
      <path id="Path_292" data-name="Path 292" d="M1023.435,566.58s-1.02.909.932,3.005S1023.435,566.58,1023.435,566.58Z" transform="translate(-876.368 -460.14)" opacity="0.1"/>
      <path id="Path_293" data-name="Path 293" d="M1011.753,604.31c0,.119-.361,4.358.99,5.418S1011.753,604.31,1011.753,604.31Z" transform="translate(-866.633 -490.396)" opacity="0.1"/>
      <path id="Path_294" data-name="Path 294" d="M854.941,436.59c-1.09.049-3.443.487-2.223,3.484,1.079,2.652,2.893.88,3.913-.466A5.184,5.184,0,0,0,854.941,436.59Z" transform="translate(-731.279 -355.9)" fill="#ffb0b1"/>
      <path id="Path_295" data-name="Path 295" d="M881.39,451Z" transform="translate(-755.926 -367.456)" fill="#ffb0b1"/>
      <path id="Path_296" data-name="Path 296" d="M880.74,451.461l.045-.061Z" transform="translate(-755.374 -367.776)" fill="#ffb0b1"/>
      <path id="Path_297" data-name="Path 297" d="M956.773,335.331c-1.156,1.04-2.125,1.918-2.315,2.1-.518.505-1.505,3.471-2.142,4.984-.507,1.218-2.155,1.531-2.777,1.609l.08-.905c1.413-.832,2.5-3.482,2.5-3.482l2.793-6.446.962,1.151Z" transform="translate(-813.82 -272.983)" opacity="0.1"/>
      <path id="Path_298" data-name="Path 298" d="M956.773,334.731c-1.156,1.04-2.125,1.918-2.315,2.1-.518.5-1.505,3.469-2.142,4.982-.507,1.218-2.155,1.531-2.777,1.609l.08-.905c1.413-.832,2.5-3.482,2.5-3.482l2.793-6.446.962,1.147S956.231,334.129,956.773,334.731Z" transform="translate(-813.82 -272.502)" fill="#dce7ff"/>
      <path id="Path_299" data-name="Path 299" d="M932.424,294.138a7.231,7.231,0,0,1-.786,3.33c-1.25,2.393-3.641,3.225-5.627,1.957s-2.969-4.255-2.314-7.029,2.75-4.5,4.932-4.067S932.423,291.233,932.424,294.138Z" transform="translate(-791.695 -236.955)" fill="#ffb0b1"/>
      <path id="Path_300" data-name="Path 300" d="M942.044,313.9a4.937,4.937,0,0,1-1.44-2.036,5.9,5.9,0,0,0-.847-1.872,3.289,3.289,0,0,0-1.385-.7,5.2,5.2,0,0,1-2.96-4.689c-.024-1.022.218-2.042.108-3.055a4.014,4.014,0,0,0-.5-1.575,5.153,5.153,0,0,0-.435-.616c-.211-.261-.432-.515-.625-.792a3.181,3.181,0,0,1-.316-.565,3.233,3.233,0,0,1-.173-.525c-.3-1.212-.027-2.651-.358-3.877l-.018-.067c-.125-.436-.379-.872-.733-.905s-.656.353-.993.525c-.706.361-1.467-.254-2.056-.88s-1.252-1.341-2-1.2c-.5.093-.886.537-1.342.767a1.555,1.555,0,0,1-.318.121c.8-2.613,2.889-4.115,4.988-3.581s3.617,2.955,3.615,5.77a7.6,7.6,0,0,1-.1,1.226c.007.028.015.053.024.081.175.594.372,1.2.545,1.731l.85,1.014.9.991c1.178,1.307,3.215,3.609,4.265,5.018C941.667,305.444,941.956,310.266,942.044,313.9Z" transform="translate(-793.525 -236.955)" opacity="0.1"/>
      <path id="Path_301" data-name="Path 301" d="M920.438,269.959c.215-.576.322-1.222.579-1.769a3.392,3.392,0,0,1,1.714-1.607c1.768-.8,5.505-1.967,6.622,0a4.227,4.227,0,0,0,.706,1.109,4.742,4.742,0,0,0,.766.454,3.864,3.864,0,0,1,1.409,2.377c.242.979.315,2.028.492,3.037a27.26,27.26,0,0,0,1.023,3.738,11.172,11.172,0,0,0,1.868,3.946c1.233,1.387,1.5,3.35,2.649,4.871,1.354,1.807,1.311,4.788.613,7.155a2.5,2.5,0,0,0-.16.967,2.092,2.092,0,0,0,.4.9l.74,1.1c-1.752.557-3.734-.648-4.549-2.761a5.884,5.884,0,0,0-.849-1.872,3.28,3.28,0,0,0-1.383-.7,5.208,5.208,0,0,1-2.96-4.693c-.024-1.02.218-2.04.108-3.051a3.994,3.994,0,0,0-.5-1.585,17.746,17.746,0,0,1-1.376-1.981c-.57-1.325-.137-3.047-.548-4.469-.126-.436-.379-.872-.733-.905s-.656.353-.995.525c-.7.361-1.466-.252-2.054-.88s-1.252-1.341-2-1.2c-.5.091-.885.535-1.341.767-.337.17-1.02.323-1.315-.052C918.734,272.62,920.177,270.665,920.438,269.959Z" transform="translate(-788.048 -218.704)" fill="#591d4b"/>
      <path id="Path_302" data-name="Path 302" d="M935.543,300.617a5.888,5.888,0,0,0-.849-1.87,3.281,3.281,0,0,0-1.385-.7,5.208,5.208,0,0,1-2.96-4.691c-.024-1.02.218-2.042.11-3.053a4.014,4.014,0,0,0-.5-1.575,17.354,17.354,0,0,1-1.375-1.981c-.57-1.323-.137-3.045-.549-4.469-.125-.434-.379-.87-.731-.905s-.658.355-.995.527c-.7.361-1.467-.254-2.054-.88s-1.254-1.341-2-1.2c-.5.093-.887.537-1.341.767-.337.17-1.022.325-1.317-.05-.62-.792.823-2.744,1.082-3.445.215-.578.322-1.222.581-1.769.014-.03.029-.059.044-.089a3.046,3.046,0,0,0-.5.741c-.257.547-.364,1.189-.579,1.769-.26.7-1.7,2.658-1.082,3.445.3.376.978.222,1.315.052.451-.232.846-.675,1.341-.767.753-.141,1.415.574,2,1.2s1.354,1.24,2.056.88c.337-.172.632-.561.993-.525s.6.469.733.905c.411,1.422-.023,3.144.548,4.469a19.572,19.572,0,0,0,1.376,1.981,4,4,0,0,1,.5,1.585c.11,1.01-.132,2.03-.108,3.051a5.2,5.2,0,0,0,2.96,4.693,3.3,3.3,0,0,1,1.383.7,5.753,5.753,0,0,1,.849,1.872c.816,2.114,2.8,3.318,4.55,2.761l-.349-.519A4.194,4.194,0,0,1,935.543,300.617Z" transform="translate(-787.865 -226.504)" opacity="0.1"/>
      <path id="Path_303" data-name="Path 303" d="M948.354,350.172c-.2.4-.762,2.425-1.233,4.2-.441-.226-.841-1.666-.841-1.666l2.351-4.4A2.221,2.221,0,0,1,948.354,350.172Z" transform="translate(-811.051 -285.1)" opacity="0.1"/>
      <path id="Path_304" data-name="Path 304" d="M948.954,349.58c-.2.4-.761,2.425-1.233,4.2-.441-.224-.841-1.666-.841-1.666l2.351-4.4A2.216,2.216,0,0,1,948.954,349.58Z" transform="translate(-811.56 -284.627)" fill="#dce7ff"/>
      <path id="Path_305" data-name="Path 305" d="M862.38,434.742l-1.3-5.41a.651.651,0,0,1,.025-.386.433.433,0,0,1,.225-.25h0c.2-.083.417.064.482.329l1.3,5.4-.129,1.131Z" transform="translate(-738.654 -349.551)" fill="#be8b87"/>
      <path id="Path_306" data-name="Path 306" d="M861.55,428.889h0c.2-.084.418.063.483.329l1.3,5.4-.1.848.095.131.129-1.131-1.311-5.4c-.065-.265-.28-.412-.482-.329h0a.416.416,0,0,0-.2.2A.468.468,0,0,1,861.55,428.889Z" transform="translate(-739.004 -349.583)" fill="#fff" opacity="0.1"/>
      <path id="Path_307" data-name="Path 307" d="M822.6,399.445l.731-.305-.107.927-.023.2-.214-.293Z" transform="translate(-698.875 -314.254)" fill="#efc8c4"/>
      <path id="Path_308" data-name="Path 308" d="M872.42,461.737a.169.169,0,0,1,.047-.051.053.053,0,0,1,.071,0,.264.264,0,0,1,.026.053.134.134,0,0,0,.093.081l-.023.2Z" transform="translate(-748.306 -376.014)" fill="#727a9c"/>
      <path id="Path_309" data-name="Path 309" d="M861.13,441.7s2.614-.02,2,1.444-1.577,1.64-1.577,1.64Z" transform="translate(-738.715 -359.998)" fill="#ffb0b1"/>
      <g id="Rectangle_102" data-name="Rectangle 102" transform="translate(72.433 0)" fill="rgba(255,255,255,0)" stroke="#3f3d56" stroke-width="1">
        <rect width="44.272" height="44.287" stroke="none"/>
        <rect x="0.5" y="0.5" width="43.272" height="43.287" fill="none"/>
      </g>
      <path id="Path_310" data-name="Path 310" d="M387.786,110.794s5.672,12.286,13,20.844c3.856,4.5,8.2,7.97,12.4,7.97,12.1,0,7.532,9.888,7.532,9.888" transform="translate(-294.684 -66.759)" fill="none" stroke="#707070" stroke-width="1"/>
      <path id="Path_311" data-name="Path 311" d="M302.827,110.794s5.208,27.089-15.625,34.1" transform="translate(-218.279 -66.759)" fill="none" stroke="#707070" stroke-width="1"/>
      <line id="Line_1" data-name="Line 1" x2="32.932" transform="translate(78.851 7.991)" fill="none" stroke="#3f3d56" stroke-width="1"/>
      <line id="Line_2" data-name="Line 2" x2="27.404" transform="translate(78.851 15.234)" fill="none" stroke="#3f3d56" stroke-width="1"/>
      <line id="Line_3" data-name="Line 3" x2="31.971" transform="translate(78.851 22.477)" fill="none" stroke="#3f3d56" stroke-width="1"/>
      <line id="Line_4" data-name="Line 4" x2="13.702" transform="translate(78.851 37.998)" fill="none" stroke="#3f3d56" stroke-width="1"/>
    </g>
  </g>
</svg>
