<svg id="Group_17" data-name="Group 17" xmlns="http://www.w3.org/2000/svg" width="175" height="137.116" viewBox="0 0 175 137.116">
  <path id="Path_133" data-name="Path 133" d="M465.538,398.128s17.435.862,18.485,7.108-20.376.646-20.376.646Z" transform="translate(-385.968 -340.743)" fill="#a0616a"/>
  <path id="Path_134" data-name="Path 134" d="M336.907,306.128s2.941.862,5.252,6.031a40.384,40.384,0,0,0,6.932,9.908l18.7,3.661-3.151,9.692-17.855-2.369-11.133-6.462Z" transform="translate(-284.856 -268.558)" fill="#575a89"/>
  <path id="Path_135" data-name="Path 135" d="M336.907,306.128s2.941.862,5.252,6.031a40.384,40.384,0,0,0,6.932,9.908l18.7,3.661-3.151,9.692-17.855-2.369-11.133-6.462Z" transform="translate(-284.856 -268.558)" opacity="0.1"/>
  <rect id="Rectangle_50" data-name="Rectangle 50" width="69.95" height="0.431" transform="translate(85.977 20.016)" fill="#3f3d56"/>
  <rect id="Rectangle_51" data-name="Rectangle 51" width="165.738" height="64.83" transform="translate(6.363 71.924)" fill="#3f3d56"/>
  <path id="Path_136" data-name="Path 136" d="M115.793,109.6l1.891,12.277,13.024.646-1.47-18.092Z" transform="translate(-91.469 -81.941)" fill="#a0616a"/>
  <path id="Path_137" data-name="Path 137" d="M141.777,625.692l-.63,27.138h19.746l2.941-10.769,2.311,10.769H186.73s.42-31.015-1.891-31.231S141.777,625.692,141.777,625.692Z" transform="translate(-131.213 -516.076)" fill="#2f2e41"/>
  <ellipse id="Ellipse_17" data-name="Ellipse 17" cx="11.343" cy="11.631" rx="11.343" ry="11.631" transform="translate(17.181 7.632)" fill="#a0616a"/>
  <path id="Path_138" data-name="Path 138" d="M131.538,362.158l5.882-29.723-7.772-39.415,17.9-6.887,8.778-1.082,4.413-.845,3.15.845s12.6,3.231,13.234,5.6S174.6,312.4,174.6,312.4l-2.941,15.938,6.512,28.646s-27.1,9.477-46.213,5.169Z" transform="translate(-122.128 -251.358)" fill="#575a89"/>
  <path id="Path_139" data-name="Path 139" d="M82.293,243.934V251.9l24.786.035-23.525-2.619Z" transform="translate(-65.007 -191.395)" opacity="0.1"/>
  <path id="Path_140" data-name="Path 140" d="M72.159,329.5l31.117-4.563-31.117,9.037Z" transform="translate(-57.001 -254.949)" opacity="0.1"/>
  <path id="Path_141" data-name="Path 141" d="M294.748,248.934l-3.336,12.325,5.647-11.919Z" transform="translate(-230.198 -195.318)" opacity="0.1"/>
  <path id="Path_142" data-name="Path 142" d="M180.433,139.292l2.086-.856s-4.361-4.923-10.43-4.5l1.707-1.927s-4.172-1.712-7.964,2.783a37.958,37.958,0,0,0-5.738,8.27H157.86l.932,2.1-3.263,2.1,3.349-.378a12.056,12.056,0,0,0-.091,3.491,4.547,4.547,0,0,0,1.613,2.955h0s2.587-5.49,2.587-6.347v2.141s2.086-1.927,2.086-3.211l1.138,1.5.569-2.355,7.016,2.355-1.138-1.927,4.361.642-1.707-2.355s4.93,2.783,5.12,5.137a11.473,11.473,0,0,0,1.633,4.586S185.933,142.5,180.433,139.292Z" transform="translate(-142.573 -131.694)" fill="#2f2e41"/>
  <rect id="Rectangle_52" data-name="Rectangle 52" width="80.664" height="86.369" transform="translate(49.006 50.601)" fill="#d0cde1"/>
  <rect id="Rectangle_53" data-name="Rectangle 53" width="59.657" height="8.615" transform="translate(57.408 69.555)" fill="#6c63ff"/>
  <rect id="Rectangle_54" data-name="Rectangle 54" width="39.07" height="4.308" transform="translate(67.664 92.385)" fill="#6c63ff"/>
  <rect id="Rectangle_55" data-name="Rectangle 55" width="39.07" height="4.308" transform="translate(67.739 99.924)" fill="#6c63ff"/>
  <rect id="Rectangle_56" data-name="Rectangle 56" width="19.535" height="4.308" transform="translate(67.815 107.462)" fill="#6c63ff"/>
  <rect id="Rectangle_57" data-name="Rectangle 57" width="9.033" height="4.308" transform="translate(109.083 129.216)" fill="#6c63ff"/>
  <path id="Path_143" data-name="Path 143" d="M299.647,413.723s18.275-2.8,21.006,1.292-19.326,6.246-19.326,6.246Z" transform="translate(-256.418 -352.245)" fill="#a0616a"/>
  <path id="Path_144" data-name="Path 144" d="M103.473,324.128h-1.316a2.117,2.117,0,0,0-1.461.583,18.309,18.309,0,0,0-4.995,9.755c-1.47,7.323-3.991,21.538,1.68,22.615s42.853-4.092,42.853-4.092l-2.731-9.908-26.888.215a27.3,27.3,0,0,0-.42-7.754C109.355,332.528,103.473,324.128,103.473,324.128Z" transform="translate(-93.854 -282.681)" fill="#575a89"/>
  <ellipse id="Ellipse_18" data-name="Ellipse 18" cx="8.613" cy="8.831" rx="8.613" ry="8.831" transform="translate(77.364 11.401)" fill="#d0cde1"/>
  <ellipse id="Ellipse_19" data-name="Ellipse 19" cx="8.613" cy="8.831" rx="8.613" ry="8.831" transform="translate(116.645 11.401)" fill="#3f3d56"/>
  <path id="Path_145" data-name="Path 145" d="M843.97,201.72a9.049,9.049,0,1,1,8.823-9.046A8.936,8.936,0,0,1,843.97,201.72Zm0-17.661a8.618,8.618,0,1,0,8.4,8.615,8.511,8.511,0,0,0-8.4-8.615Z" transform="translate(-679.43 -172.442)" fill="#3f3d56"/>
  <path id="Path_147" data-name="Path 147" d="M389.605,57.7l-3.732-5.1,1.344-1.034,2.57,3.513L401.6,42.959l1.188,1.218Z" transform="translate(-304.816 -33.706)" fill="#3f3d56"/>
  <rect id="Rectangle_58" data-name="Rectangle 58" width="171.535" height="0.599" transform="translate(3.465 136.517)" fill="#3f3d56"/>
</svg>
